<svg xmlns="http://www.w3.org/2000/svg" fill="none" viewBox="0 0.46 83 17.37">
<path d="M13.5499 16.131C9.69032 16.131 6.56742 12.9977 6.56742 9.13816C6.56742 5.27864 9.69032 2.15574 13.5499 2.15574C14.909 2.15574 16.1851 2.53962 17.2538 3.214L13.5499 9.13816L20.5219 5.11263C19.7645 3.90913 18.6751 2.86124 17.3679 2.07274C15.6975 1.0871 13.3735 0.4646 10.8005 0.4646C7.12768 0.4646 3.9114 1.79261 2.11652 3.795C0.788506 5.26826 0 7.1254 0 9.14854C0 11.1717 0.788506 13.0288 2.11652 14.5021C3.9114 16.5045 7.08618 17.8221 10.6967 17.8221C14.3072 17.8221 17.4716 16.4941 19.2769 14.5021C19.3703 14.388 19.474 14.2842 19.557 14.1701L19.2873 13.1533C18.0215 14.9482 15.9257 16.131 13.5499 16.131Z" fill="white"/>
<path d="M36.6657 17.4071L33.7399 6.49253C33.273 4.72877 31.6649 3.43188 29.7559 3.43188C29.2579 3.43188 28.7806 3.52526 28.3449 3.68089L22.0472 5.97378H28.5212L29.6314 10.1031C28.5524 9.17968 27.1621 8.61942 25.6266 8.61942C22.5867 8.61942 20.1278 10.6529 20.1278 13.1741C20.1278 15.6849 22.5867 17.7287 25.6266 17.7287C27.8157 17.7287 29.7559 16.6601 30.949 15.0105L31.5923 17.4071H36.6657ZM27.7431 15.7056C26.3425 15.7056 25.2012 14.5747 25.2012 13.1637C25.2012 11.7631 26.3425 10.6218 27.7431 10.6218C29.1438 10.6218 30.285 11.7631 30.285 13.1637C30.285 14.5747 29.1438 15.7056 27.7431 15.7056Z" fill="white"/>
<path d="M48.5968 3.43188C48.213 3.43188 47.8498 3.51489 47.5282 3.67051L43.4819 5.55878C43.2848 4.35527 42.2369 3.44226 40.9712 3.44226C40.5873 3.44226 40.2242 3.52526 39.8922 3.68089L34.9536 5.98415H38.4293V17.4175H43.5131V7.24991C43.5131 6.54441 44.0837 5.97378 44.7892 5.97378C45.4843 5.97378 46.0653 6.54441 46.0653 7.24991V17.4175H51.1491V5.97378C51.1284 4.56277 49.9975 3.43188 48.5968 3.43188Z" fill="white"/>
<path d="M67.6451 10.6322C67.6451 14.6058 64.4288 17.8325 60.4552 17.8325C56.4815 17.8325 53.2549 14.6058 53.2549 10.6322C53.2549 6.65853 56.4815 3.43188 60.4552 3.43188C64.4288 3.43188 67.6451 6.65853 67.6451 10.6322ZM60.7457 5.61065C60.5174 4.75989 59.6459 4.26189 58.8056 4.49014C57.9548 4.71839 57.4568 5.5899 57.685 6.43028L60.1543 15.633C60.3826 16.4837 61.2541 16.9817 62.0945 16.7639C62.9452 16.5356 63.4432 15.6641 63.215 14.8133L60.7457 5.61065Z" fill="white"/>
<path d="M80.4577 3.43188C80.0738 3.43188 79.7107 3.51489 79.3787 3.67051L75.3428 5.5484C75.1456 4.34489 74.0978 3.43188 72.832 3.43188C72.4481 3.43188 72.085 3.51489 71.753 3.67051L66.8145 5.97378H70.2901V17.4071H75.3739V7.23954C75.3739 6.53403 75.9445 5.9634 76.65 5.9634C77.3555 5.9634 77.9158 6.53403 77.9158 7.23954V17.4071H82.9996V5.97378C82.9996 4.56277 81.8583 3.43188 80.4577 3.43188Z" fill="white"/>
</svg>