<svg xmlns="http://www.w3.org/2000/svg" fill="none" viewBox="0 0 206.19 80">
<g clip-path="url(#clip0)">
<path d="M13.0516 52.2707H5.299V33.669H0V27.6135H5.299V23.3193C5.299 18.2137 7.62891 14.5527 15.3815 14.5527C17.0104 14.5527 19.5878 14.8694 19.5878 14.8694V20.4895H16.8867C14.1238 20.4895 13.0516 21.3008 13.0516 23.5172V27.6135H19.4847L18.9073 33.669H13.0722L13.0516 52.2707ZM30.8868 27.1386C30.7837 27.1386 30.66 27.1386 30.5363 27.1386C23.3404 27.1386 20.0414 32.3431 20.0414 39.7244C20.0414 49.0253 24.3094 52.7456 30.5981 52.7456C34.1858 52.7456 36.5569 51.301 37.9796 48.5899V52.2707H45.3611V27.6333H37.9796V31.413C36.825 28.979 34.392 27.1584 30.8868 27.1386ZM32.7631 32.9566C35.794 32.9566 37.6085 34.9751 37.6085 38.4183V41.9408C37.6085 44.2561 36.1033 46.987 32.7631 46.987C27.6084 46.987 27.7528 41.644 27.7528 39.8827C27.7528 33.9064 30.495 32.9566 32.7631 32.9566ZM48.3714 39.9421C48.3714 36.954 48.2271 27.1584 61.5262 27.1584C66.8664 27.1584 69.0932 28.7811 69.0932 28.7811L67.2994 34.1241C67.2994 34.1241 65.0726 32.9566 62.1653 32.9566C58.454 32.9566 56.0828 35.0146 56.0828 38.6558V41.268C56.0828 44.7706 58.3715 47.1058 62.1653 47.1058C64.8045 47.1058 67.2375 45.9184 67.2375 45.9184L69.0314 51.1427C69.0314 51.1427 66.9901 52.7852 61.5468 52.7852C48.8869 52.7654 48.3714 43.9593 48.3714 39.9421ZM112.413 27.1386C119.609 27.1386 122.97 32.3431 122.97 39.7244C122.97 49.0253 118.702 52.7456 112.413 52.7456C108.825 52.7456 106.166 51.301 104.722 48.5899V52.2707H97.4233V15.3047L105.176 14.6517V31.0766C106.289 28.2072 109.959 27.1386 112.413 27.1386ZM110.248 32.9566C107.217 32.9566 105.176 34.9751 105.176 38.4183V41.9408C105.176 44.2561 106.599 46.987 110.248 46.987C115.403 46.987 115.258 41.644 115.258 39.8827C115.258 33.9064 112.516 32.9566 110.248 32.9566ZM82.516 27.1584C74.351 27.1584 70.0211 31.4328 70.0211 39.0318V40.4368C70.0211 50.2918 76.083 52.8446 83.2995 52.8446C90.3098 52.8446 93.5057 50.9646 93.5057 50.9646L92.0624 45.9382C92.0624 45.9382 88.3305 47.462 84.248 47.462C80.0211 47.462 78.2067 46.4329 77.7324 42.5345H94.1449V38.5173C94.1449 30.2653 89.2995 27.1584 82.516 27.1584ZM82.7222 32.1848C85.5469 32.1848 87.382 33.8471 87.2789 37.7059H77.7324C77.918 33.6492 79.8974 32.1848 82.7222 32.1848ZM138.413 27.1386C130.021 27.1386 125.609 31.6703 125.609 39.8036C125.609 50.9646 133.217 52.7654 138.434 52.7654C146.063 52.7654 151.135 48.8274 151.135 39.9025C151.114 30.6215 145.424 27.1386 138.413 27.1386ZM138.31 32.9764C142.001 32.9764 143.465 35.6281 143.465 38.636V41.2284C143.465 44.8894 141.424 46.987 138.29 46.987C135.362 46.987 133.32 45.0081 133.32 41.2284V38.636C133.32 34.5991 135.753 32.9764 138.31 32.9764ZM166.558 27.1386C158.166 27.1386 153.754 31.6703 153.754 39.8036C153.754 50.9646 161.362 52.7654 166.578 52.7654C174.207 52.7654 179.279 48.8274 179.279 39.9025C179.259 30.6215 173.568 27.1386 166.558 27.1386ZM166.455 32.9764C170.145 32.9764 171.609 35.6281 171.609 38.636V41.2284C171.609 44.8894 169.568 46.987 166.434 46.987C163.506 46.987 161.465 45.0081 161.465 41.2284V38.636C161.465 34.5991 163.898 32.9764 166.455 32.9764ZM182.187 52.2707V15.3047L189.96 14.6517V39.4276L197.671 27.6135H205.878L197.836 39.8432L206.187 52.2509H197.96L189.96 40.1994V52.2509L182.187 52.2707Z" fill="#1B63A6"/>
</g>
<defs>
<clipPath id="clip0">
<rect width="206" height="80" fill="white"/>
</clipPath>
</defs>
</svg>