<svg width="84" height="26" viewBox="0 0 84 26" fill="none" xmlns="http://www.w3.org/2000/svg">
<path d="M13.6615 7.55038V18.4796C13.6615 19.1101 13.5915 19.7407 13.5214 20.2311C13.4514 20.7215 13.3112 21.2119 13.1711 21.6323C12.9609 22.1227 12.6807 22.6131 12.3304 23.0335C11.9801 23.4538 11.4897 23.8742 10.9292 24.1544C10.3688 24.5047 9.73822 24.7149 9.03763 24.9251C8.33704 25.1352 7.56639 25.2053 6.79574 25.2053C5.88497 25.2053 5.04426 25.0652 4.27361 24.855C3.50296 24.6448 2.87243 24.2945 2.24189 23.8742C1.61136 23.4538 1.19101 22.9634 0.84071 22.473C0.490414 21.9125 0.210178 21.352 0.140118 20.7215H4.83408C5.11432 21.4922 5.81491 21.9125 6.79574 21.9125C7.70651 21.9125 8.33704 21.6323 8.82746 21.2119C9.31787 20.7215 9.52805 20.0209 9.52805 19.1802V18.0593C9.24781 18.3395 8.89751 18.6197 8.61728 18.7598C8.33704 18.97 8.0568 19.1101 7.77657 19.2503C7.49633 19.3904 7.14604 19.4604 6.8658 19.5305C6.5155 19.6006 6.16521 19.6006 5.81491 19.6006C4.9742 19.6006 4.20355 19.4604 3.50296 19.1802C2.80237 18.9 2.17183 18.4796 1.68142 17.9892C1.19101 17.4988 0.700592 16.7281 0.420355 16.0275C0.140118 15.3269 0 14.4862 0 13.6455C0 12.7348 0.140118 11.894 0.490414 11.1234C0.84071 10.3527 1.19101 9.65215 1.75148 9.09168C2.31195 8.53121 2.87243 8.04079 3.64308 7.76056C4.41373 7.48032 5.18438 7.27014 6.02509 7.27014C7.42627 7.27014 8.61728 7.76056 9.52805 8.81144V7.55038H13.6615ZM4.34367 13.3653C4.34367 13.7156 4.41373 14.0659 4.55385 14.4162C4.69396 14.7665 4.90414 15.0467 5.11432 15.2569C5.3245 15.4671 5.60473 15.6772 5.95503 15.8174C6.30533 16.0275 6.65562 16.0976 7.00592 16.0976C7.35621 16.0976 7.70651 16.0275 8.0568 15.8874C8.4071 15.7473 8.68734 15.5371 8.89751 15.3269C9.10769 15.1168 9.31787 14.7665 9.45799 14.4862C9.59811 14.206 9.66817 13.7856 9.66817 13.4354C9.66817 13.0851 9.59811 12.7348 9.45799 12.3845C9.31787 12.0342 9.10769 11.7539 8.89751 11.5438C8.68734 11.3336 8.33704 11.1234 8.0568 10.9833C7.77657 10.8432 7.35621 10.7731 7.00592 10.7731C6.65562 10.7731 6.30533 10.8432 5.95503 10.9833C5.60473 11.1234 5.3245 11.3336 5.11432 11.5438C4.90414 11.7539 4.69396 12.0342 4.55385 12.3845C4.41373 12.6647 4.34367 13.015 4.34367 13.3653Z" fill="white"/>
<path d="M16.1838 2.99658C16.1838 2.64629 16.2539 2.36605 16.394 2.08581C16.5341 1.80558 16.6743 1.52534 16.8844 1.31516C17.0946 1.10499 17.3748 0.894809 17.6551 0.82475C17.9353 0.754691 18.2156 0.684631 18.5658 0.684631C18.9161 0.684631 19.1964 0.754691 19.4766 0.894809C19.7569 1.03493 20.0371 1.17505 20.2473 1.38522C20.4574 1.5954 20.5976 1.87564 20.7377 2.15587C20.8778 2.43611 20.9479 2.71635 20.9479 3.06664C20.9479 3.41694 20.8778 3.69718 20.7377 3.97741C20.5976 4.25765 20.4574 4.53789 20.2473 4.74806C20.0371 4.95824 19.7569 5.16842 19.4766 5.23848C19.1964 5.30854 18.9161 5.44866 18.5658 5.44866C18.2156 5.44866 17.9353 5.3786 17.6551 5.23848C17.3748 5.09836 17.0946 4.95824 16.8844 4.74806C16.6743 4.53789 16.5341 4.25765 16.394 3.97741C16.2539 3.62712 16.1838 3.34688 16.1838 2.99658Z" fill="#00FFFF"/>
<path d="M36.7114 7.55038V18.4796C36.7114 19.1101 36.6413 19.7407 36.5712 20.2311C36.5012 20.7215 36.3611 21.2119 36.2209 21.6323C36.0108 22.1227 35.7305 22.6131 35.3802 23.0335C35.0299 23.4538 34.5395 23.8742 33.979 24.1544C33.4186 24.4346 32.788 24.7149 32.0874 24.9251C31.3869 25.1352 30.6162 25.2053 29.8456 25.2053C28.9348 25.2053 28.0941 25.0652 27.3234 24.855C26.5528 24.6448 25.9222 24.2945 25.2917 23.8742C24.6612 23.4538 24.2408 22.9634 23.8905 22.473C23.5402 21.9125 23.26 21.352 23.1899 20.7215H27.8839C28.1641 21.4922 28.8647 21.9125 29.8456 21.9125C30.7563 21.9125 31.3869 21.6323 31.8773 21.2119C32.3677 20.7215 32.5779 20.0209 32.5779 19.1802V18.0593C32.2976 18.3395 31.9473 18.6197 31.6671 18.7598C31.3869 18.97 31.1066 19.1101 30.8264 19.2503C30.5461 19.3904 30.2659 19.4604 29.9156 19.5305C29.5653 19.6006 29.215 19.6006 28.8647 19.6006C28.024 19.6006 27.2534 19.4604 26.5528 19.1802C25.8522 18.9 25.2216 18.4796 24.7312 17.9892C24.2408 17.4988 23.8205 16.8682 23.5402 16.0976C23.26 15.397 23.1199 14.5563 23.1199 13.6455C23.1199 12.7348 23.26 11.894 23.6103 11.1234C23.9606 10.3527 24.3109 9.65215 24.8714 9.09168C25.4318 8.53121 26.0624 8.04079 26.763 7.76056C27.4635 7.41026 28.3043 7.27014 29.145 7.27014C30.5461 7.27014 31.7372 7.76056 32.6479 8.81144V7.55038H36.7114ZM27.3234 13.3653C27.3234 13.7156 27.3935 14.0659 27.5336 14.4162C27.6737 14.7665 27.8839 15.0467 28.0941 15.2569C28.3043 15.4671 28.5845 15.6772 28.9348 15.8174C29.2851 15.9575 29.6354 16.0275 29.9857 16.0275C30.336 16.0275 30.6863 15.9575 31.0366 15.8174C31.3869 15.6772 31.6671 15.4671 31.8773 15.2569C32.0874 15.0467 32.2976 14.6964 32.4377 14.4162C32.5779 14.1359 32.6479 13.7156 32.6479 13.3653C32.6479 13.015 32.5779 12.6647 32.4377 12.3144C32.2976 11.9641 32.0874 11.6839 31.8773 11.4737C31.6671 11.2635 31.3168 11.0533 31.0366 10.9132C30.7563 10.7731 30.336 10.703 29.9857 10.703C29.6354 10.703 29.2851 10.7731 28.9348 10.9132C28.5845 11.0533 28.3043 11.2635 28.0941 11.4737C27.8839 11.6839 27.6737 11.9641 27.5336 12.3144C27.4635 12.6647 27.3234 13.015 27.3234 13.3653Z" fill="white"/>
<path d="M47.3601 10.5629C46.5894 10.1425 45.8188 9.93236 45.1182 9.93236C44.7679 9.93236 44.4176 10.0024 44.2074 10.1425C43.9973 10.2827 43.8571 10.4928 43.8571 10.7731C43.8571 10.9132 43.8571 11.0533 43.9272 11.1234C43.9272 11.1934 44.0673 11.2635 44.2074 11.3335C44.3475 11.4036 44.5577 11.4737 44.7679 11.5437C45.0481 11.6138 45.3284 11.6838 45.7487 11.7539C46.8697 11.9641 47.7804 12.3844 48.3409 12.9449C48.9014 13.5054 49.1816 14.276 49.1816 15.1868C49.1816 15.8874 49.0415 16.5179 48.7613 17.0083C48.481 17.5688 48.1307 18.0592 47.6403 18.4095C47.1499 18.7598 46.5894 19.1101 45.8889 19.2502C45.1883 19.4604 44.4176 19.5305 43.5769 19.5305C41.9655 19.5305 40.4242 19.1101 38.8829 18.1993L40.4242 15.2569C41.6152 16.0275 42.6661 16.4479 43.717 16.4479C44.0673 16.4479 44.4176 16.3778 44.6278 16.1676C44.838 15.9575 44.9781 15.8173 44.9781 15.5371C44.9781 15.397 44.9781 15.2569 44.908 15.1868C44.838 15.1167 44.7679 14.9766 44.6978 14.9066C44.5577 14.8365 44.4176 14.7664 44.1374 14.6964C43.8571 14.6263 43.5769 14.5563 43.2266 14.4862C41.9655 14.206 41.0548 13.8557 40.4943 13.3653C40.0039 12.8748 39.7236 12.1743 39.7236 11.2635C39.7236 10.633 39.8638 10.0024 40.0739 9.51201C40.2841 8.95153 40.6344 8.53118 41.1248 8.18088C41.6152 7.83059 42.1757 7.55035 42.8062 7.34017C43.4368 7.13 44.2074 7.05994 44.9781 7.05994C46.3092 7.05994 47.5703 7.34017 48.7613 7.83059L47.3601 10.5629Z" fill="white"/>
<path d="M56.1865 10.9833V19.2503H52.053V10.9833H50.6519V7.55044H52.053V4.04749H56.1865V7.55044H58.5685V10.9833H56.1865Z" fill="white"/>
<path d="M64.1041 14.1359C64.1041 15.8874 64.9448 16.7982 66.6262 16.7982C67.537 16.7982 68.2376 16.4479 68.6579 15.6772H72.6513C71.8106 18.3395 69.7789 19.7407 66.5561 19.7407C65.5753 19.7407 64.6645 19.6005 63.8238 19.3203C62.9831 19.0401 62.2825 18.6197 61.7221 18.0592C61.1616 17.4988 60.6712 16.8682 60.3909 16.0976C60.1107 15.3269 59.9005 14.4862 59.9005 13.5054C59.9005 12.5246 60.0406 11.6839 60.3909 10.8431C60.6712 10.0725 61.1616 9.3719 61.7221 8.81143C62.2825 8.25095 62.9831 7.8306 63.7538 7.55036C64.5945 7.27012 65.4352 7.13 66.4861 7.13C67.4669 7.13 68.3777 7.27012 69.1483 7.55036C69.919 7.8306 70.6196 8.25095 71.18 8.88148C71.7405 9.51202 72.1609 10.1425 72.4411 10.9833C72.7213 11.824 72.8615 12.7347 72.8615 13.7156V14.1359H64.1041ZM68.9381 11.6839C68.798 11.1234 68.5178 10.633 68.0974 10.2827C67.6771 9.93237 67.1867 9.79225 66.5561 9.79225C65.9256 9.79225 65.3651 9.93237 64.9448 10.2827C64.5244 10.633 64.3142 11.1234 64.1741 11.6839H68.9381Z" fill="white"/>
<path d="M75.2424 7.55039H79.3759V9.51204C79.7963 8.81145 80.3567 8.25098 80.9873 7.90068C81.6178 7.55039 82.3885 7.34021 83.2292 7.34021C83.3693 7.34021 83.4393 7.34021 83.5795 7.34021C83.7196 7.34021 83.8597 7.34021 83.9998 7.41027V11.4036C83.4393 11.1234 82.8789 10.9833 82.1783 10.9833C81.1975 10.9833 80.4969 11.2635 80.0064 11.824C79.516 12.3845 79.3059 13.2252 79.3059 14.3461V19.3904H75.1724L75.2424 7.55039Z" fill="white"/>
<path d="M20.4569 7.62036H16.3234V19.3903H20.4569V7.62036Z" fill="white"/>
</svg>
