<svg xmlns="http://www.w3.org/2000/svg" fill="none" viewBox="0 0 163.5 872">
<path d="M69.8609 483.893L69.862 483.891C74.9456 474.744 88.0292 474.683 93.1752 483.828L93.1754 483.828L162.002 606.072L162.002 606.072C162.739 607.379 162.656 608.725 161.763 610.227C160.837 611.784 159.066 613.441 156.555 615.14C151.551 618.524 143.961 621.841 135.582 624.764C127.22 627.68 118.14 630.181 110.2 631.951C102.235 633.727 95.4991 634.75 91.7935 634.75H62.9109C59.2142 634.75 53.0426 633.734 45.9239 631.967C38.8282 630.206 30.8709 627.717 23.6293 624.814C16.3695 621.904 9.90293 618.605 5.73482 615.247C3.64682 613.564 2.21213 611.927 1.5056 610.387C0.821738 608.896 0.817047 607.504 1.58063 606.137L69.8609 483.893Z" stroke="white" stroke-width="2"/>
<mask id="mask0" mask-type="alpha" maskUnits="userSpaceOnUse" x="4" y="477" width="156" height="152">
<path d="M5.17187 599.846L70.0068 484.488C75.1936 475.214 88.5496 475.149 93.8012 484.424L159.155 599.781C166.352 612.47 106.185 628.25 91.6617 628.25H64.2365C49.7135 628.25 -1.95998 612.534 5.17187 599.846Z" fill="#C4C4C4"/>
</mask>
<g mask="url(#mask0)">
<path d="M107.632 452.333L-150.64 601.446L-150.982 600.855L107.29 451.742L107.632 452.333Z" fill="white"/>
<path d="M115.542 454.453L-142.73 603.566L-143.071 602.975L115.201 453.861L115.542 454.453Z" fill="white"/>
<path d="M123.452 456.572L-134.82 605.686L-135.161 605.095L123.111 455.981L123.452 456.572Z" fill="white"/>
<path d="M131.363 458.692L-126.909 607.805L-127.25 607.214L131.022 458.101L131.363 458.692Z" fill="white"/>
<path d="M139.273 460.811L-118.999 609.925L-119.34 609.334L138.932 460.22L139.273 460.811Z" fill="white"/>
<path d="M147.184 462.931L-111.088 612.044L-111.43 611.453L146.842 462.34L147.184 462.931Z" fill="white"/>
<path d="M155.094 465.05L-103.178 614.164L-103.519 613.573L154.753 464.459L155.094 465.05Z" fill="white"/>
<path d="M163.004 467.17L-95.2676 616.283L-95.6089 615.692L162.663 466.579L163.004 467.17Z" fill="white"/>
<path d="M170.915 469.29L-87.3572 618.403L-87.6985 617.812L170.574 468.699L170.915 469.29Z" fill="white"/>
<path d="M178.825 471.409L-79.4469 620.523L-79.7881 619.932L178.484 470.818L178.825 471.409Z" fill="white"/>
<path d="M186.736 473.529L-71.5365 622.642L-71.8777 622.051L186.394 472.938L186.736 473.529Z" fill="white"/>
<path d="M194.646 475.648L-63.6261 624.762L-63.9673 624.171L194.305 475.057L194.646 475.648Z" fill="white"/>
<path d="M202.556 477.768L-55.7157 626.881L-56.0569 626.29L202.215 477.177L202.556 477.768Z" fill="white"/>
<path d="M210.467 479.888L-47.8053 629.001L-48.1465 628.41L210.126 479.297L210.467 479.888Z" fill="white"/>
<path d="M218.377 482.007L-39.8949 631.121L-40.2361 630.53L218.036 481.416L218.377 482.007Z" fill="white"/>
<path d="M226.288 484.127L-31.9845 633.24L-32.3257 632.649L225.946 483.536L226.288 484.127Z" fill="white"/>
<path d="M234.198 486.246L-24.0741 635.36L-24.4153 634.769L233.857 485.655L234.198 486.246Z" fill="white"/>
<path d="M242.108 488.366L-16.1637 637.479L-16.5049 636.888L241.767 487.775L242.108 488.366Z" fill="white"/>
<path d="M250.019 490.485L-8.25327 639.599L-8.5945 639.008L249.678 489.894L250.019 490.485Z" fill="white"/>
<path d="M257.929 492.605L-0.342877 641.718L-0.684097 641.127L257.588 492.014L257.929 492.605Z" fill="white"/>
<path d="M265.84 494.725L7.56753 643.838L7.22629 643.247L265.498 494.134L265.84 494.725Z" fill="white"/>
<path d="M273.75 496.844L15.4779 645.958L15.1367 645.367L273.409 496.253L273.75 496.844Z" fill="white"/>
<path d="M281.66 498.964L23.3883 648.077L23.0471 647.486L281.319 498.373L281.66 498.964Z" fill="white"/>
<path d="M289.571 501.083L31.2987 650.197L30.9575 649.606L289.23 500.492L289.571 501.083Z" fill="white"/>
<path d="M297.481 503.203L39.2091 652.316L38.8679 651.725L297.14 502.612L297.481 503.203Z" fill="white"/>
<path d="M305.392 505.323L47.1195 654.436L46.7783 653.845L305.05 504.732L305.392 505.323Z" fill="white"/>
<path d="M313.302 507.442L55.0299 656.556L54.6887 655.965L312.961 506.851L313.302 507.442Z" fill="white"/>
<path d="M321.212 509.562L62.9403 658.675L62.5991 658.084L320.871 508.971L321.212 509.562Z" fill="white"/>
<path d="M329.123 511.681L70.8507 660.795L70.5095 660.204L328.782 511.09L329.123 511.681Z" fill="white"/>
<path d="M336.392 513.629L78.1199 662.743L77.7787 662.152L336.051 513.038L336.392 513.629Z" fill="white"/>
<path d="M344.302 515.749L86.0303 664.862L85.6891 664.271L343.961 515.158L344.302 515.749Z" fill="white"/>
<path d="M352.213 517.868L93.9407 666.982L93.5995 666.391L351.872 517.277L352.213 517.868Z" fill="white"/>
<path d="M360.123 519.988L101.851 669.101L101.51 668.51L359.782 519.397L360.123 519.988Z" fill="white"/>
<path d="M368.034 522.107L109.762 671.221L109.42 670.63L367.692 521.516L368.034 522.107Z" fill="white"/>
<path d="M375.944 524.227L117.672 673.34L117.331 672.749L375.603 523.636L375.944 524.227Z" fill="white"/>
<path d="M383.854 526.347L125.582 675.46L125.241 674.869L383.513 525.756L383.854 526.347Z" fill="white"/>
<path d="M391.765 528.466L133.493 677.58L133.151 676.989L391.424 527.875L391.765 528.466Z" fill="white"/>
<path d="M399.675 530.586L141.403 679.699L141.062 679.108L399.334 529.995L399.675 530.586Z" fill="white"/>
<path d="M407.586 532.705L149.314 681.819L148.972 681.228L407.244 532.114L407.586 532.705Z" fill="white"/>
<path d="M415.496 534.825L157.224 683.938L156.883 683.347L415.155 534.234L415.496 534.825Z" fill="white"/>
<path d="M423.406 536.945L165.134 686.058L164.793 685.467L423.065 536.353L423.406 536.945Z" fill="white"/>
<path d="M431.317 539.064L173.045 688.178L172.703 687.587L430.976 538.473L431.317 539.064Z" fill="white"/>
<path d="M439.227 541.184L180.955 690.297L180.614 689.706L438.886 540.593L439.227 541.184Z" fill="white"/>
<path d="M447.138 543.303L188.865 692.417L188.524 691.826L446.796 542.712L447.138 543.303Z" fill="white"/>
<path d="M455.048 545.423L196.776 694.536L196.435 693.945L454.707 544.832L455.048 545.423Z" fill="white"/>
<path d="M462.958 547.542L204.686 696.656L204.345 696.065L462.617 546.951L462.958 547.542Z" fill="white"/>
<path d="M470.869 549.662L212.597 698.775L212.255 698.184L470.528 549.071L470.869 549.662Z" fill="white"/>
<path d="M478.779 551.782L220.507 700.895L220.166 700.304L478.438 551.191L478.779 551.782Z" fill="white"/>
<path d="M486.69 553.901L228.417 703.015L228.076 702.424L486.348 553.31L486.69 553.901Z" fill="white"/>
<path d="M494.6 556.021L236.328 705.134L235.987 704.543L494.259 555.43L494.6 556.021Z" fill="white"/>
<path d="M502.51 558.14L244.238 707.254L243.897 706.663L502.169 557.549L502.51 558.14Z" fill="white"/>
<path d="M510.421 560.26L252.149 709.373L251.807 708.782L510.08 559.669L510.421 560.26Z" fill="white"/>
<path d="M518.331 562.38L260.059 711.493L259.718 710.902L517.99 561.789L518.331 562.38Z" fill="white"/>
<path d="M526.242 564.499L267.969 713.613L267.628 713.022L525.9 563.908L526.242 564.499Z" fill="white"/>
<path d="M534.152 566.619L275.88 715.732L275.539 715.141L533.811 566.028L534.152 566.619Z" fill="white"/>
<path d="M542.062 568.738L283.79 717.852L283.449 717.261L541.721 568.147L542.062 568.738Z" fill="white"/>
<path d="M549.973 570.858L291.701 719.971L291.359 719.38L549.631 570.267L549.973 570.858Z" fill="white"/>
<path d="M557.883 572.977L299.611 722.091L299.27 721.5L557.542 572.386L557.883 572.977Z" fill="white"/>
</g>
<path d="M162.5 609.5C162.5 613.016 160.458 616.51 156.44 619.822C152.428 623.128 146.563 626.151 139.227 628.708C124.564 633.82 104.243 637 81.75 637C59.2568 637 38.9357 633.82 24.2732 628.708C16.9373 626.151 11.0721 623.128 7.06038 619.822C3.042 616.51 1.00003 613.016 1.00003 609.5C1.00003 605.984 3.042 602.49 7.06038 599.178C11.0721 595.872 16.9373 592.849 24.2732 590.292C38.9357 585.18 59.2568 582 81.75 582C104.243 582 124.564 585.18 139.227 590.292C146.563 592.849 152.428 595.872 156.44 599.178C160.458 602.49 162.5 605.984 162.5 609.5Z" fill="#1A1A1A" stroke="white" stroke-width="2"/>
<path d="M41.9815 556.249L72.2692 490.98C72.8224 489.788 73.994 489.004 75.3069 488.947C77.6483 488.845 79.4328 491.018 78.8773 493.295L61.8239 563.198C60.8778 567.076 57.8259 570.09 53.9359 570.987C45.3709 572.962 38.2816 564.222 41.9815 556.249Z" fill="#1A1A1A"/>
<path d="M41.7017 615V603.8H46.0057C46.8377 603.8 47.6164 603.944 48.3417 604.232C49.0671 604.52 49.6911 604.915 50.2137 605.416C50.7471 605.917 51.1631 606.515 51.4617 607.208C51.7711 607.901 51.9257 608.643 51.9257 609.432C51.9257 610.211 51.7711 610.941 51.4617 611.624C51.1631 612.307 50.7471 612.899 50.2137 613.4C49.6911 613.891 49.0671 614.28 48.3417 614.568C47.6164 614.856 46.8377 615 46.0057 615H41.7017ZM45.9897 605.864H44.0217V612.936H45.9897C46.4804 612.936 46.9391 612.845 47.3657 612.664C47.8031 612.483 48.1817 612.237 48.5017 611.928C48.8217 611.608 49.0724 611.235 49.2537 610.808C49.4351 610.381 49.5257 609.923 49.5257 609.432C49.5257 608.931 49.4351 608.461 49.2537 608.024C49.0724 607.587 48.8217 607.208 48.5017 606.888C48.1817 606.568 47.8031 606.317 47.3657 606.136C46.9391 605.955 46.4804 605.864 45.9897 605.864ZM54.3142 615V603.8H62.9222V605.816H56.6342V608.376H60.7782V610.328H56.6342V612.984H62.9862V615H54.3142ZM68.9769 615L64.4329 603.8H66.9449L70.3689 612.648L73.8729 603.8H76.2729L71.6649 615H68.9769ZM78.0236 615V603.8H86.6316V605.816H80.3436V608.376H84.4876V610.328H80.3436V612.984H86.6956V615H78.0236ZM89.1361 615V603.8H91.4561V612.952H97.5841V615H89.1361ZM110.532 609.4C110.532 610.2 110.377 610.957 110.068 611.672C109.759 612.376 109.337 612.989 108.804 613.512C108.281 614.024 107.657 614.429 106.932 614.728C106.207 615.027 105.428 615.176 104.596 615.176C103.775 615.176 103.001 615.027 102.276 614.728C101.551 614.429 100.921 614.024 100.388 613.512C99.8653 612.989 99.4493 612.376 99.14 611.672C98.8307 610.957 98.676 610.2 98.676 609.4C98.676 608.6 98.8307 607.848 99.14 607.144C99.4493 606.429 99.8653 605.816 100.388 605.304C100.921 604.781 101.551 604.371 102.276 604.072C103.001 603.773 103.775 603.624 104.596 603.624C105.428 603.624 106.207 603.773 106.932 604.072C107.657 604.371 108.281 604.781 108.804 605.304C109.337 605.816 109.759 606.429 110.068 607.144C110.377 607.848 110.532 608.6 110.532 609.4ZM108.148 609.4C108.148 608.877 108.057 608.397 107.876 607.96C107.695 607.512 107.444 607.128 107.124 606.808C106.815 606.477 106.441 606.221 106.004 606.04C105.567 605.848 105.097 605.752 104.596 605.752C104.095 605.752 103.625 605.848 103.188 606.04C102.761 606.221 102.388 606.477 102.068 606.808C101.759 607.128 101.513 607.512 101.332 607.96C101.151 608.397 101.06 608.877 101.06 609.4C101.06 609.912 101.151 610.392 101.332 610.84C101.513 611.288 101.759 611.677 102.068 612.008C102.388 612.328 102.761 612.584 103.188 612.776C103.625 612.957 104.095 613.048 104.596 613.048C105.097 613.048 105.567 612.957 106.004 612.776C106.441 612.584 106.815 612.328 107.124 612.008C107.444 611.677 107.695 611.288 107.876 610.84C108.057 610.392 108.148 609.912 108.148 609.4ZM112.924 615V603.8H118.54C119.084 603.8 119.585 603.891 120.044 604.072C120.513 604.243 120.913 604.483 121.244 604.792C121.574 605.101 121.83 605.475 122.012 605.912C122.204 606.339 122.3 606.808 122.3 607.32C122.3 607.821 122.204 608.285 122.012 608.712C121.83 609.128 121.569 609.491 121.228 609.8C120.897 610.109 120.502 610.349 120.044 610.52C119.585 610.691 119.084 610.776 118.54 610.776H115.244V615H112.924ZM118.284 605.8H115.244V608.856H118.284C118.785 608.856 119.185 608.717 119.484 608.44C119.793 608.163 119.948 607.795 119.948 607.336C119.948 606.877 119.793 606.509 119.484 606.232C119.185 605.944 118.785 605.8 118.284 605.8Z" fill="white"/>
<path d="M69.8609 70.8929L69.862 70.891C74.9456 61.7439 88.0292 61.6822 93.1752 70.8274L93.1754 70.8276L162.002 193.072L162.002 193.072C162.739 194.379 162.656 195.724 161.763 197.227C160.837 198.784 159.066 200.441 156.555 202.139C151.551 205.524 143.961 208.841 135.582 211.763C127.22 214.68 118.14 217.18 110.2 218.951C102.235 220.727 95.4991 221.75 91.7935 221.75H62.9109C59.2142 221.75 53.0426 220.734 45.9239 218.967C38.8282 217.205 30.8709 214.717 23.6293 211.813C16.3695 208.903 9.90293 205.605 5.73482 202.246C3.64682 200.564 2.21213 198.927 1.5056 197.386C0.821738 195.895 0.817047 194.504 1.58063 193.137L69.8609 70.8929Z" stroke="white" stroke-width="2"/>
<mask id="mask1" mask-type="alpha" maskUnits="userSpaceOnUse" x="4" y="64" width="156" height="152">
<path d="M5.17187 186.845L70.0068 71.488C75.1936 62.2131 88.5496 62.1487 93.8012 71.4236L159.155 186.781C166.352 199.469 106.185 215.25 91.6617 215.25H64.2365C49.7135 215.25 -1.95998 199.534 5.17187 186.845Z" fill="#C4C4C4"/>
</mask>
<g mask="url(#mask1)">
<path d="M107.632 39.3324L-150.64 188.446L-150.982 187.855L107.29 38.7414L107.632 39.3324Z" fill="white"/>
<path d="M115.542 41.452L-142.73 190.565L-143.071 189.974L115.201 40.861L115.542 41.452Z" fill="white"/>
<path d="M123.452 43.5716L-134.82 192.685L-135.161 192.094L123.111 42.9806L123.452 43.5716Z" fill="white"/>
<path d="M131.363 45.6912L-126.909 194.805L-127.25 194.214L131.022 45.1002L131.363 45.6912Z" fill="white"/>
<path d="M139.273 47.8108L-118.999 196.924L-119.34 196.333L138.932 47.2198L139.273 47.8108Z" fill="white"/>
<path d="M147.184 49.9304L-111.088 199.044L-111.43 198.453L146.842 49.3393L147.184 49.9304Z" fill="white"/>
<path d="M155.094 52.0499L-103.178 201.163L-103.519 200.572L154.753 51.4589L155.094 52.0499Z" fill="white"/>
<path d="M163.004 54.1695L-95.2676 203.283L-95.6089 202.692L162.663 53.5785L163.004 54.1695Z" fill="white"/>
<path d="M170.915 56.2891L-87.3572 205.403L-87.6985 204.812L170.574 55.6981L170.915 56.2891Z" fill="white"/>
<path d="M178.825 58.4087L-79.4469 207.522L-79.7881 206.931L178.484 57.8177L178.825 58.4087Z" fill="white"/>
<path d="M186.736 60.5283L-71.5365 209.642L-71.8777 209.051L186.394 59.9373L186.736 60.5283Z" fill="white"/>
<path d="M194.646 62.6479L-63.6261 211.761L-63.9673 211.17L194.305 62.0568L194.646 62.6479Z" fill="white"/>
<path d="M202.556 64.7675L-55.7157 213.881L-56.0569 213.29L202.215 64.1764L202.556 64.7675Z" fill="white"/>
<path d="M210.467 66.887L-47.8053 216L-48.1465 215.409L210.126 66.296L210.467 66.887Z" fill="white"/>
<path d="M218.377 69.0066L-39.8949 218.12L-40.2361 217.529L218.036 68.4156L218.377 69.0066Z" fill="white"/>
<path d="M226.288 71.1262L-31.9845 220.24L-32.3257 219.649L225.946 70.5352L226.288 71.1262Z" fill="white"/>
<path d="M234.198 73.2458L-24.0741 222.359L-24.4153 221.768L233.857 72.6548L234.198 73.2458Z" fill="white"/>
<path d="M242.108 75.3654L-16.1637 224.479L-16.5049 223.888L241.767 74.7744L242.108 75.3654Z" fill="white"/>
<path d="M250.019 77.485L-8.25327 226.598L-8.5945 226.007L249.678 76.8939L250.019 77.485Z" fill="white"/>
<path d="M257.929 79.6045L-0.342877 228.718L-0.684097 228.127L257.588 79.0135L257.929 79.6045Z" fill="white"/>
<path d="M265.84 81.7241L7.56753 230.838L7.22629 230.247L265.498 81.1331L265.84 81.7241Z" fill="white"/>
<path d="M273.75 83.8437L15.4779 232.957L15.1367 232.366L273.409 83.2527L273.75 83.8437Z" fill="white"/>
<path d="M281.66 85.9633L23.3883 235.077L23.0471 234.486L281.319 85.3723L281.66 85.9633Z" fill="white"/>
<path d="M289.571 88.0829L31.2987 237.196L30.9575 236.605L289.23 87.4919L289.571 88.0829Z" fill="white"/>
<path d="M297.481 90.2025L39.2091 239.316L38.8679 238.725L297.14 89.6114L297.481 90.2025Z" fill="white"/>
<path d="M305.392 92.322L47.1195 241.436L46.7783 240.845L305.05 91.731L305.392 92.322Z" fill="white"/>
<path d="M313.302 94.4416L55.0299 243.555L54.6887 242.964L312.961 93.8506L313.302 94.4416Z" fill="white"/>
<path d="M321.212 96.5612L62.9403 245.675L62.5991 245.084L320.871 95.9702L321.212 96.5612Z" fill="white"/>
<path d="M329.123 98.6808L70.8507 247.794L70.5095 247.203L328.782 98.0898L329.123 98.6808Z" fill="white"/>
<path d="M336.392 100.629L78.1199 249.742L77.7787 249.151L336.051 100.038L336.392 100.629Z" fill="white"/>
<path d="M344.302 102.748L86.0303 251.862L85.6891 251.271L343.961 102.157L344.302 102.748Z" fill="white"/>
<path d="M352.213 104.868L93.9407 253.981L93.5995 253.39L351.872 104.277L352.213 104.868Z" fill="white"/>
<path d="M360.123 106.987L101.851 256.101L101.51 255.51L359.782 106.396L360.123 106.987Z" fill="white"/>
<path d="M368.034 109.107L109.762 258.22L109.42 257.629L367.692 108.516L368.034 109.107Z" fill="white"/>
<path d="M375.944 111.227L117.672 260.34L117.331 259.749L375.603 110.635L375.944 111.227Z" fill="white"/>
<path d="M383.854 113.346L125.582 262.46L125.241 261.869L383.513 112.755L383.854 113.346Z" fill="white"/>
<path d="M391.765 115.466L133.493 264.579L133.151 263.988L391.424 114.875L391.765 115.466Z" fill="white"/>
<path d="M399.675 117.585L141.403 266.699L141.062 266.108L399.334 116.994L399.675 117.585Z" fill="white"/>
<path d="M407.586 119.705L149.314 268.818L148.972 268.227L407.244 119.114L407.586 119.705Z" fill="white"/>
<path d="M415.496 121.824L157.224 270.938L156.883 270.347L415.155 121.233L415.496 121.824Z" fill="white"/>
<path d="M423.406 123.944L165.134 273.057L164.793 272.466L423.065 123.353L423.406 123.944Z" fill="white"/>
<path d="M431.317 126.064L173.045 275.177L172.703 274.586L430.976 125.473L431.317 126.064Z" fill="white"/>
<path d="M439.227 128.183L180.955 277.297L180.614 276.706L438.886 127.592L439.227 128.183Z" fill="white"/>
<path d="M447.138 130.303L188.865 279.416L188.524 278.825L446.796 129.712L447.138 130.303Z" fill="white"/>
<path d="M455.048 132.422L196.776 281.536L196.435 280.945L454.707 131.831L455.048 132.422Z" fill="white"/>
<path d="M462.958 134.542L204.686 283.655L204.345 283.064L462.617 133.951L462.958 134.542Z" fill="white"/>
<path d="M470.869 136.662L212.597 285.775L212.255 285.184L470.528 136.071L470.869 136.662Z" fill="white"/>
<path d="M478.779 138.781L220.507 287.895L220.166 287.304L478.438 138.19L478.779 138.781Z" fill="white"/>
<path d="M486.69 140.901L228.417 290.014L228.076 289.423L486.348 140.31L486.69 140.901Z" fill="white"/>
<path d="M494.6 143.02L236.328 292.134L235.987 291.543L494.259 142.429L494.6 143.02Z" fill="white"/>
<path d="M502.51 145.14L244.238 294.253L243.897 293.662L502.169 144.549L502.51 145.14Z" fill="white"/>
<path d="M510.421 147.259L252.149 296.373L251.807 295.782L510.08 146.668L510.421 147.259Z" fill="white"/>
<path d="M518.331 149.379L260.059 298.492L259.718 297.901L517.99 148.788L518.331 149.379Z" fill="white"/>
<path d="M526.242 151.499L267.969 300.612L267.628 300.021L525.9 150.908L526.242 151.499Z" fill="white"/>
<path d="M534.152 153.618L275.88 302.732L275.539 302.141L533.811 153.027L534.152 153.618Z" fill="white"/>
<path d="M542.062 155.738L283.79 304.851L283.449 304.26L541.721 155.147L542.062 155.738Z" fill="white"/>
<path d="M549.973 157.857L291.701 306.971L291.359 306.38L549.631 157.266L549.973 157.857Z" fill="white"/>
<path d="M557.883 159.977L299.611 309.09L299.27 308.499L557.542 159.386L557.883 159.977Z" fill="white"/>
</g>
<path d="M162.5 196.5C162.5 200.016 160.458 203.509 156.44 206.821C152.428 210.128 146.563 213.15 139.227 215.708C124.564 220.819 104.243 224 81.75 224C59.2568 224 38.9357 220.819 24.2732 215.708C16.9373 213.15 11.0721 210.128 7.06038 206.821C3.042 203.509 1.00003 200.016 1.00003 196.5C1.00003 192.983 3.042 189.49 7.06038 186.178C11.0721 182.871 16.9373 179.849 24.2732 177.291C38.9357 172.18 59.2568 169 81.75 169C104.243 169 124.564 172.18 139.227 177.291C146.563 179.849 152.428 182.871 156.44 186.178C160.458 189.49 162.5 192.983 162.5 196.5Z" fill="#1A1A1A" stroke="white" stroke-width="2"/>
<path d="M41.9815 143.248L72.2692 77.9797C72.8224 76.7876 73.994 76.0033 75.3069 75.9461C77.6483 75.8441 79.4328 78.0172 78.8773 80.2941L61.8239 150.198C60.8778 154.076 57.8259 157.089 53.9359 157.986C45.3709 159.962 38.2816 151.221 41.9815 143.248Z" fill="#1A1A1A"/>
<path d="M36.1221 202V190.8H41.5941C42.1594 190.8 42.6767 190.885 43.1461 191.056C43.6261 191.226 44.0367 191.466 44.3781 191.776C44.7194 192.074 44.9861 192.437 45.1781 192.864C45.3701 193.29 45.4661 193.76 45.4661 194.272C45.4661 194.976 45.2634 195.605 44.8581 196.16C44.4634 196.714 43.9354 197.125 43.2741 197.392L45.7541 202H43.1621L40.9701 197.712H38.4421V202H36.1221ZM41.3861 192.8H38.4421V195.808H41.3861C41.9087 195.808 42.3247 195.669 42.6341 195.392C42.9541 195.114 43.1141 194.752 43.1141 194.304C43.1141 193.856 42.9541 193.493 42.6341 193.216C42.3247 192.938 41.9087 192.8 41.3861 192.8ZM47.7814 202V190.8H56.3894V192.816H50.1014V195.376H54.2454V197.328H50.1014V199.984H56.4534V202H47.7814ZM57.9339 200.224L59.2619 198.56C59.9126 199.125 60.5366 199.541 61.1339 199.808C61.7419 200.064 62.3819 200.192 63.0539 200.192C63.7473 200.192 64.3019 200.064 64.7179 199.808C65.1339 199.552 65.3419 199.21 65.3419 198.784C65.3419 198.4 65.1979 198.101 64.9099 197.888C64.6326 197.674 64.1633 197.514 63.5019 197.408L61.2779 197.024C60.3179 196.864 59.5873 196.528 59.0859 196.016C58.5953 195.504 58.3499 194.842 58.3499 194.032C58.3499 192.986 58.7446 192.16 59.5339 191.552C60.3339 190.944 61.4113 190.64 62.7659 190.64C63.5766 190.64 64.3926 190.778 65.2139 191.056C66.0459 191.333 66.7713 191.717 67.3899 192.208L66.1419 193.936C65.5446 193.477 64.9579 193.141 64.3819 192.928C63.8059 192.704 63.2139 192.592 62.6059 192.592C61.9873 192.592 61.4913 192.709 61.1179 192.944C60.7446 193.168 60.5579 193.472 60.5579 193.856C60.5579 194.197 60.6806 194.464 60.9259 194.656C61.1713 194.848 61.5819 194.986 62.1579 195.072L64.2699 195.424C65.3793 195.605 66.2113 195.962 66.7659 196.496C67.3313 197.018 67.6139 197.712 67.6139 198.576C67.6139 199.664 67.1819 200.533 66.3179 201.184C65.4646 201.834 64.3233 202.16 62.8939 202.16C61.9979 202.16 61.1126 201.989 60.2379 201.648C59.3739 201.306 58.6059 200.832 57.9339 200.224ZM69.8033 202V190.8H78.4113V192.816H72.1233V195.376H76.2673V197.328H72.1233V199.984H78.4753V202H69.8033ZM80.0313 202L84.6393 190.8H87.3273L91.8713 202H89.3593L88.2233 199.056H83.5993L82.4473 202H80.0313ZM84.3193 197.2H87.5193L85.9353 193.072L84.3193 197.2ZM93.6221 202V190.8H99.0941C99.6594 190.8 100.177 190.885 100.646 191.056C101.126 191.226 101.537 191.466 101.878 191.776C102.219 192.074 102.486 192.437 102.678 192.864C102.87 193.29 102.966 193.76 102.966 194.272C102.966 194.976 102.763 195.605 102.358 196.16C101.963 196.714 101.435 197.125 100.774 197.392L103.254 202H100.662L98.4701 197.712H95.9421V202H93.6221ZM98.8861 192.8H95.9421V195.808H98.8861C99.4087 195.808 99.8247 195.669 100.134 195.392C100.454 195.114 100.614 194.752 100.614 194.304C100.614 193.856 100.454 193.493 100.134 193.216C99.8247 192.938 99.4087 192.8 98.8861 192.8ZM110.881 200.016C111.468 200.016 112.017 199.893 112.529 199.648C113.041 199.402 113.495 199.05 113.889 198.592L115.409 200.096C114.876 200.725 114.193 201.226 113.361 201.6C112.54 201.973 111.692 202.16 110.817 202.16C109.975 202.16 109.185 202.01 108.449 201.712C107.724 201.413 107.095 201.008 106.561 200.496C106.028 199.984 105.607 199.376 105.297 198.672C104.999 197.968 104.849 197.21 104.849 196.4C104.849 195.589 105.004 194.832 105.313 194.128C105.623 193.413 106.044 192.8 106.577 192.288C107.111 191.776 107.74 191.37 108.465 191.072C109.201 190.773 109.985 190.624 110.817 190.624C111.713 190.624 112.583 190.816 113.425 191.2C114.268 191.573 114.951 192.08 115.473 192.72L113.905 194.272C113.511 193.781 113.047 193.408 112.513 193.152C111.98 192.885 111.415 192.752 110.817 192.752C110.316 192.752 109.841 192.848 109.393 193.04C108.956 193.221 108.577 193.477 108.257 193.808C107.937 194.128 107.687 194.512 107.505 194.96C107.324 195.397 107.233 195.877 107.233 196.4C107.233 196.912 107.324 197.392 107.505 197.84C107.697 198.277 107.953 198.656 108.273 198.976C108.604 199.296 108.988 199.552 109.425 199.744C109.873 199.925 110.359 200.016 110.881 200.016ZM117.566 202V190.8H119.886V195.296H125.038V190.8H127.358V202H125.038V197.424H119.886V202H117.566Z" fill="white"/>
<path d="M69.8609 801.107L69.8619 801.109C74.9456 810.256 88.0292 810.317 93.1752 801.172L93.1753 801.172L162.002 678.928L162.002 678.928C162.739 677.621 162.656 676.275 161.763 674.773C160.837 673.216 159.066 671.559 156.555 669.86C151.551 666.476 143.961 663.159 135.582 660.236C127.22 657.32 118.14 654.819 110.2 653.049C102.235 651.273 95.4991 650.25 91.7935 650.25H62.9109C59.2141 650.25 53.0425 651.266 45.9239 653.033C38.8282 654.794 30.8709 657.283 23.6292 660.186C16.3695 663.096 9.9029 666.395 5.73479 669.753C3.64679 671.436 2.2121 673.073 1.50557 674.613C0.821708 676.104 0.817016 677.496 1.5806 678.863L69.8609 801.107Z" stroke="white" stroke-width="2"/>
<mask id="mask2" mask-type="alpha" maskUnits="userSpaceOnUse" x="0" y="649" width="164" height="160">
<path d="M0.707572 679.35L68.9879 801.594C74.4503 811.423 88.516 811.491 94.0467 801.663L162.873 679.419C170.452 665.972 107.088 649.25 91.7935 649.25H62.9109C47.6161 649.25 -6.80326 665.904 0.707572 679.35Z" fill="#C4C4C4"/>
</mask>
<g mask="url(#mask2)">
<path d="M107.646 832.648L-150.558 683.574L-150.899 684.165L107.305 833.239L107.646 832.648Z" fill="white"/>
<path d="M115.555 830.529L-142.649 681.455L-142.99 682.046L115.214 831.12L115.555 830.529Z" fill="white"/>
<path d="M123.463 828.41L-134.741 679.336L-135.082 679.927L123.122 829.001L123.463 828.41Z" fill="white"/>
<path d="M131.371 826.291L-126.833 677.217L-127.174 677.808L131.03 826.882L131.371 826.291Z" fill="white"/>
<path d="M139.28 824.172L-118.924 675.098L-119.266 675.689L138.938 824.763L139.28 824.172Z" fill="white"/>
<path d="M147.188 822.053L-111.016 672.979L-111.357 673.57L146.847 822.644L147.188 822.053Z" fill="white"/>
<path d="M155.096 819.934L-103.108 670.86L-103.449 671.451L154.755 820.525L155.096 819.934Z" fill="white"/>
<path d="M163.005 817.815L-95.1995 668.741L-95.5406 669.332L162.663 818.406L163.005 817.815Z" fill="white"/>
<path d="M170.913 815.696L-87.2911 666.622L-87.6323 667.213L170.572 816.287L170.913 815.696Z" fill="white"/>
<path d="M178.821 813.577L-79.3828 664.503L-79.724 665.094L178.48 814.168L178.821 813.577Z" fill="white"/>
<path d="M186.729 811.458L-71.4745 662.384L-71.8157 662.975L186.388 812.049L186.729 811.458Z" fill="white"/>
<path d="M194.638 809.339L-63.5662 660.265L-63.9073 660.856L194.297 809.93L194.638 809.339Z" fill="white"/>
<path d="M202.546 807.22L-55.6579 658.146L-55.999 658.737L202.205 807.811L202.546 807.22Z" fill="white"/>
<path d="M210.454 805.101L-47.7496 656.027L-48.0907 656.618L210.113 805.692L210.454 805.101Z" fill="white"/>
<path d="M218.363 802.982L-39.8413 653.908L-40.1824 654.499L218.022 803.573L218.363 802.982Z" fill="white"/>
<path d="M226.271 800.863L-31.9329 651.789L-32.2741 652.38L225.93 801.454L226.271 800.863Z" fill="white"/>
<path d="M234.179 798.744L-24.0246 649.67L-24.3658 650.261L233.838 799.335L234.179 798.744Z" fill="white"/>
<path d="M242.088 796.625L-16.1163 647.551L-16.4575 648.142L241.747 797.216L242.088 796.625Z" fill="white"/>
<path d="M249.996 794.506L-8.20801 645.432L-8.54914 646.023L249.655 795.097L249.996 794.506Z" fill="white"/>
<path d="M257.904 792.387L-0.299698 643.313L-0.640832 643.904L257.563 792.978L257.904 792.387Z" fill="white"/>
<path d="M265.813 790.268L7.60861 641.194L7.26748 641.785L265.471 790.859L265.813 790.268Z" fill="white"/>
<path d="M273.721 788.149L15.5169 639.075L15.1758 639.666L273.38 788.74L273.721 788.149Z" fill="white"/>
<path d="M281.629 786.03L23.4252 636.956L23.0841 637.547L281.288 786.621L281.629 786.03Z" fill="white"/>
<path d="M289.538 783.911L31.3335 634.837L30.9924 635.428L289.196 784.502L289.538 783.911Z" fill="white"/>
<path d="M297.446 781.792L39.2419 632.718L38.9007 633.308L297.105 782.383L297.446 781.792Z" fill="white"/>
<path d="M305.354 779.673L47.1502 630.599L46.8091 631.189L305.013 780.264L305.354 779.673Z" fill="white"/>
<path d="M313.262 777.554L55.0585 628.48L54.7174 629.07L312.921 778.145L313.262 777.554Z" fill="white"/>
<path d="M321.171 775.435L62.9668 626.361L62.6257 626.951L320.83 776.026L321.171 775.435Z" fill="white"/>
<path d="M329.079 773.316L70.8751 624.242L70.534 624.832L328.738 773.907L329.079 773.316Z" fill="white"/>
<path d="M336.346 771.368L78.1424 622.294L77.8013 622.885L336.005 771.959L336.346 771.368Z" fill="white"/>
<path d="M344.255 769.249L86.0507 620.175L85.7096 620.766L343.914 769.84L344.255 769.249Z" fill="white"/>
<path d="M352.163 767.13L93.959 618.056L93.6179 618.647L351.822 767.721L352.163 767.13Z" fill="white"/>
<path d="M360.071 765.011L101.867 615.937L101.526 616.528L359.73 765.602L360.071 765.011Z" fill="white"/>
<path d="M367.98 762.892L109.776 613.818L109.435 614.409L367.639 763.483L367.98 762.892Z" fill="white"/>
<path d="M375.888 760.773L117.684 611.699L117.343 612.29L375.547 761.364L375.888 760.773Z" fill="white"/>
<path d="M383.796 758.654L125.592 609.58L125.251 610.171L383.455 759.245L383.796 758.654Z" fill="white"/>
<path d="M391.705 756.535L133.501 607.461L133.159 608.052L391.363 757.126L391.705 756.535Z" fill="white"/>
<path d="M399.613 754.416L141.409 605.342L141.068 605.933L399.272 755.007L399.613 754.416Z" fill="white"/>
<path d="M407.521 752.297L149.317 603.223L148.976 603.814L407.18 752.888L407.521 752.297Z" fill="white"/>
<path d="M415.43 750.178L157.226 601.104L156.884 601.695L415.088 750.769L415.43 750.178Z" fill="white"/>
<path d="M423.338 748.059L165.134 598.985L164.793 599.576L422.997 748.65L423.338 748.059Z" fill="white"/>
<path d="M431.246 745.94L173.042 596.866L172.701 597.457L430.905 746.531L431.246 745.94Z" fill="white"/>
<path d="M439.155 743.821L180.95 594.747L180.609 595.338L438.813 744.412L439.155 743.821Z" fill="white"/>
<path d="M447.063 741.702L188.859 592.628L188.518 593.219L446.722 742.293L447.063 741.702Z" fill="white"/>
<path d="M454.971 739.583L196.767 590.509L196.426 591.1L454.63 740.174L454.971 739.583Z" fill="white"/>
<path d="M462.879 737.464L204.675 588.39L204.334 588.981L462.538 738.055L462.879 737.464Z" fill="white"/>
<path d="M470.788 735.345L212.584 586.271L212.243 586.862L470.447 735.936L470.788 735.345Z" fill="white"/>
<path d="M478.696 733.226L220.492 584.152L220.151 584.743L478.355 733.817L478.696 733.226Z" fill="white"/>
<path d="M486.604 731.107L228.4 582.033L228.059 582.624L486.263 731.698L486.604 731.107Z" fill="white"/>
<path d="M494.513 728.988L236.309 579.914L235.968 580.505L494.172 729.579L494.513 728.988Z" fill="white"/>
<path d="M502.421 726.869L244.217 577.795L243.876 578.386L502.08 727.46L502.421 726.869Z" fill="white"/>
<path d="M510.329 724.75L252.125 575.676L251.784 576.267L509.988 725.341L510.329 724.75Z" fill="white"/>
<path d="M518.238 722.631L260.034 573.557L259.692 574.148L517.896 723.222L518.238 722.631Z" fill="white"/>
<path d="M526.146 720.512L267.942 571.438L267.601 572.028L525.805 721.103L526.146 720.512Z" fill="white"/>
<path d="M534.054 718.393L275.85 569.319L275.509 569.909L533.713 718.984L534.054 718.393Z" fill="white"/>
<path d="M541.963 716.274L283.759 567.2L283.417 567.79L541.621 716.865L541.963 716.274Z" fill="white"/>
<path d="M549.871 714.155L291.667 565.081L291.326 565.671L549.53 714.746L549.871 714.155Z" fill="white"/>
<path d="M557.779 712.036L299.575 562.962L299.234 563.552L557.438 712.627L557.779 712.036Z" fill="white"/>
</g>
<path d="M162.5 675.5C162.5 671.984 160.458 668.49 156.44 665.178C152.428 661.872 146.563 658.849 139.227 656.292C124.564 651.18 104.243 648 81.75 648C59.2568 648 38.9357 651.18 24.2732 656.292C16.9373 658.849 11.072 661.872 7.06035 665.178C3.04197 668.49 1 671.984 1 675.5C1 679.016 3.04197 682.51 7.06035 685.822C11.072 689.128 16.9373 692.151 24.2732 694.708C38.9357 699.82 59.2568 703 81.75 703C104.243 703 124.564 699.82 139.227 694.708C146.563 692.151 152.428 689.128 156.44 685.822C160.458 682.51 162.5 679.016 162.5 675.5Z" fill="#1A1A1A" stroke="white" stroke-width="2"/>
<path d="M42.0136 728.76L72.2932 794.011C72.8463 795.203 74.0175 795.987 75.3301 796.044C77.6709 796.146 79.4549 793.974 78.8996 791.697L61.8507 721.812C60.9048 717.935 57.8537 714.922 53.9648 714.025C45.4021 712.051 38.3146 720.789 42.0136 728.76Z" fill="#1A1A1A"/>
<path d="M45.6471 681V669.8H49.9511C50.7831 669.8 51.5617 669.944 52.2871 670.232C53.0124 670.52 53.6364 670.915 54.1591 671.416C54.6924 671.917 55.1084 672.515 55.4071 673.208C55.7164 673.901 55.8711 674.643 55.8711 675.432C55.8711 676.211 55.7164 676.941 55.4071 677.624C55.1084 678.307 54.6924 678.899 54.1591 679.4C53.6364 679.891 53.0124 680.28 52.2871 680.568C51.5617 680.856 50.7831 681 49.9511 681H45.6471ZM49.9351 671.864H47.9671V678.936H49.9351C50.4257 678.936 50.8844 678.845 51.3111 678.664C51.7484 678.483 52.1271 678.237 52.4471 677.928C52.7671 677.608 53.0177 677.235 53.1991 676.808C53.3804 676.381 53.4711 675.923 53.4711 675.432C53.4711 674.931 53.3804 674.461 53.1991 674.024C53.0177 673.587 52.7671 673.208 52.4471 672.888C52.1271 672.568 51.7484 672.317 51.3111 672.136C50.8844 671.955 50.4257 671.864 49.9351 671.864ZM58.2596 681V669.8H66.8676V671.816H60.5796V674.376H64.7236V676.328H60.5796V678.984H66.9316V681H58.2596ZM69.3721 681V669.8H71.6921V678.952H77.8201V681H69.3721ZM80.2189 681V669.8H82.5389V681H80.2189ZM88.8503 681L84.3063 669.8H86.8183L90.2423 678.648L93.7463 669.8H96.1463L91.5383 681H88.8503ZM97.8971 681V669.8H106.505V671.816H100.217V674.376H104.361V676.328H100.217V678.984H106.569V681H97.8971ZM109.01 681V669.8H114.482C115.047 669.8 115.564 669.885 116.034 670.056C116.514 670.227 116.924 670.467 117.266 670.776C117.607 671.075 117.874 671.437 118.066 671.864C118.258 672.291 118.354 672.76 118.354 673.272C118.354 673.976 118.151 674.605 117.746 675.16C117.351 675.715 116.823 676.125 116.162 676.392L118.642 681H116.05L113.858 676.712H111.33V681H109.01ZM114.274 671.8H111.33V674.808H114.274C114.796 674.808 115.212 674.669 115.522 674.392C115.842 674.115 116.002 673.752 116.002 673.304C116.002 672.856 115.842 672.493 115.522 672.216C115.212 671.939 114.796 671.8 114.274 671.8Z" fill="white"/>
<path d="M69.8609 387.107L69.8619 387.109C74.9456 396.256 88.0292 396.317 93.1752 387.172L93.1753 387.172L162.002 264.928L162.002 264.928C162.739 263.621 162.656 262.275 161.763 260.773C160.837 259.216 159.066 257.559 156.555 255.86C151.551 252.476 143.961 249.159 135.582 246.236C127.22 243.32 118.14 240.819 110.2 239.049C102.235 237.273 95.4991 236.25 91.7935 236.25H62.9109C59.2141 236.25 53.0425 237.266 45.9239 239.033C38.8282 240.794 30.8709 243.283 23.6292 246.186C16.3695 249.096 9.9029 252.395 5.73479 255.753C3.64679 257.436 2.2121 259.073 1.50557 260.613C0.821708 262.104 0.817016 263.496 1.5806 264.863L69.8609 387.107Z" stroke="white" stroke-width="2"/>
<mask id="mask3" mask-type="alpha" maskUnits="userSpaceOnUse" x="0" y="235" width="164" height="160">
<path d="M0.707572 265.35L68.9879 387.594C74.4503 397.423 88.516 397.491 94.0467 387.663L162.873 265.419C170.452 251.972 107.088 235.25 91.7935 235.25H62.9109C47.6161 235.25 -6.80326 251.904 0.707572 265.35Z" fill="#C4C4C4"/>
</mask>
<g mask="url(#mask3)">
<path d="M107.646 418.648L-150.558 269.574L-150.899 270.165L107.305 419.239L107.646 418.648Z" fill="white"/>
<path d="M115.555 416.529L-142.649 267.455L-142.99 268.046L115.214 417.12L115.555 416.529Z" fill="white"/>
<path d="M123.463 414.41L-134.741 265.336L-135.082 265.927L123.122 415.001L123.463 414.41Z" fill="white"/>
<path d="M131.371 412.291L-126.833 263.217L-127.174 263.808L131.03 412.882L131.371 412.291Z" fill="white"/>
<path d="M139.28 410.172L-118.924 261.098L-119.266 261.689L138.938 410.763L139.28 410.172Z" fill="white"/>
<path d="M147.188 408.053L-111.016 258.979L-111.357 259.57L146.847 408.644L147.188 408.053Z" fill="white"/>
<path d="M155.096 405.934L-103.108 256.86L-103.449 257.451L154.755 406.525L155.096 405.934Z" fill="white"/>
<path d="M163.005 403.815L-95.1995 254.741L-95.5406 255.332L162.663 404.406L163.005 403.815Z" fill="white"/>
<path d="M170.913 401.696L-87.2911 252.622L-87.6323 253.213L170.572 402.287L170.913 401.696Z" fill="white"/>
<path d="M178.821 399.577L-79.3828 250.503L-79.724 251.094L178.48 400.168L178.821 399.577Z" fill="white"/>
<path d="M186.729 397.458L-71.4745 248.384L-71.8157 248.975L186.388 398.049L186.729 397.458Z" fill="white"/>
<path d="M194.638 395.339L-63.5662 246.265L-63.9073 246.856L194.297 395.93L194.638 395.339Z" fill="white"/>
<path d="M202.546 393.22L-55.6579 244.146L-55.999 244.737L202.205 393.811L202.546 393.22Z" fill="white"/>
<path d="M210.454 391.101L-47.7496 242.027L-48.0907 242.618L210.113 391.692L210.454 391.101Z" fill="white"/>
<path d="M218.363 388.982L-39.8413 239.908L-40.1824 240.499L218.022 389.573L218.363 388.982Z" fill="white"/>
<path d="M226.271 386.863L-31.9329 237.789L-32.2741 238.38L225.93 387.454L226.271 386.863Z" fill="white"/>
<path d="M234.179 384.744L-24.0246 235.67L-24.3658 236.261L233.838 385.335L234.179 384.744Z" fill="white"/>
<path d="M242.088 382.625L-16.1163 233.551L-16.4575 234.142L241.747 383.216L242.088 382.625Z" fill="white"/>
<path d="M249.996 380.506L-8.20801 231.432L-8.54914 232.023L249.655 381.097L249.996 380.506Z" fill="white"/>
<path d="M257.904 378.387L-0.299698 229.313L-0.640832 229.904L257.563 378.978L257.904 378.387Z" fill="white"/>
<path d="M265.813 376.268L7.60861 227.194L7.26748 227.785L265.471 376.859L265.813 376.268Z" fill="white"/>
<path d="M273.721 374.149L15.5169 225.075L15.1758 225.666L273.38 374.74L273.721 374.149Z" fill="white"/>
<path d="M281.629 372.03L23.4252 222.956L23.0841 223.547L281.288 372.621L281.629 372.03Z" fill="white"/>
<path d="M289.538 369.911L31.3335 220.837L30.9924 221.428L289.196 370.502L289.538 369.911Z" fill="white"/>
<path d="M297.446 367.792L39.2419 218.718L38.9007 219.308L297.105 368.383L297.446 367.792Z" fill="white"/>
<path d="M305.354 365.673L47.1502 216.599L46.8091 217.189L305.013 366.264L305.354 365.673Z" fill="white"/>
<path d="M313.262 363.554L55.0585 214.48L54.7174 215.07L312.921 364.145L313.262 363.554Z" fill="white"/>
<path d="M321.171 361.435L62.9668 212.361L62.6257 212.951L320.83 362.026L321.171 361.435Z" fill="white"/>
<path d="M329.079 359.316L70.8751 210.242L70.534 210.832L328.738 359.907L329.079 359.316Z" fill="white"/>
<path d="M336.346 357.368L78.1424 208.294L77.8013 208.885L336.005 357.959L336.346 357.368Z" fill="white"/>
<path d="M344.255 355.249L86.0507 206.175L85.7096 206.766L343.914 355.84L344.255 355.249Z" fill="white"/>
<path d="M352.163 353.13L93.959 204.056L93.6179 204.647L351.822 353.721L352.163 353.13Z" fill="white"/>
<path d="M360.071 351.011L101.867 201.937L101.526 202.528L359.73 351.602L360.071 351.011Z" fill="white"/>
<path d="M367.98 348.892L109.776 199.818L109.435 200.409L367.639 349.483L367.98 348.892Z" fill="white"/>
<path d="M375.888 346.773L117.684 197.699L117.343 198.29L375.547 347.364L375.888 346.773Z" fill="white"/>
<path d="M383.796 344.654L125.592 195.58L125.251 196.171L383.455 345.245L383.796 344.654Z" fill="white"/>
<path d="M391.705 342.535L133.501 193.461L133.159 194.052L391.363 343.126L391.705 342.535Z" fill="white"/>
<path d="M399.613 340.416L141.409 191.342L141.068 191.933L399.272 341.007L399.613 340.416Z" fill="white"/>
<path d="M407.521 338.297L149.317 189.223L148.976 189.814L407.18 338.888L407.521 338.297Z" fill="white"/>
<path d="M415.43 336.178L157.226 187.104L156.884 187.695L415.088 336.769L415.43 336.178Z" fill="white"/>
<path d="M423.338 334.059L165.134 184.985L164.793 185.576L422.997 334.65L423.338 334.059Z" fill="white"/>
<path d="M431.246 331.94L173.042 182.866L172.701 183.457L430.905 332.531L431.246 331.94Z" fill="white"/>
<path d="M439.155 329.821L180.95 180.747L180.609 181.338L438.813 330.412L439.155 329.821Z" fill="white"/>
<path d="M447.063 327.702L188.859 178.628L188.518 179.219L446.722 328.293L447.063 327.702Z" fill="white"/>
<path d="M454.971 325.583L196.767 176.509L196.426 177.1L454.63 326.174L454.971 325.583Z" fill="white"/>
<path d="M462.879 323.464L204.675 174.39L204.334 174.981L462.538 324.055L462.879 323.464Z" fill="white"/>
<path d="M470.788 321.345L212.584 172.271L212.243 172.862L470.447 321.936L470.788 321.345Z" fill="white"/>
<path d="M478.696 319.226L220.492 170.152L220.151 170.743L478.355 319.817L478.696 319.226Z" fill="white"/>
<path d="M486.604 317.107L228.4 168.033L228.059 168.624L486.263 317.698L486.604 317.107Z" fill="white"/>
<path d="M494.513 314.988L236.309 165.914L235.968 166.505L494.172 315.579L494.513 314.988Z" fill="white"/>
<path d="M502.421 312.869L244.217 163.795L243.876 164.386L502.08 313.46L502.421 312.869Z" fill="white"/>
<path d="M510.329 310.75L252.125 161.676L251.784 162.267L509.988 311.341L510.329 310.75Z" fill="white"/>
<path d="M518.238 308.631L260.034 159.557L259.692 160.148L517.896 309.222L518.238 308.631Z" fill="white"/>
<path d="M526.146 306.512L267.942 157.438L267.601 158.028L525.805 307.103L526.146 306.512Z" fill="white"/>
<path d="M534.054 304.393L275.85 155.319L275.509 155.909L533.713 304.984L534.054 304.393Z" fill="white"/>
<path d="M541.963 302.274L283.759 153.2L283.417 153.79L541.621 302.865L541.963 302.274Z" fill="white"/>
<path d="M549.871 300.155L291.667 151.081L291.326 151.671L549.53 300.746L549.871 300.155Z" fill="white"/>
<path d="M557.779 298.036L299.575 148.962L299.234 149.552L557.438 298.627L557.779 298.036Z" fill="white"/>
</g>
<path d="M162.5 261.5C162.5 257.984 160.458 254.49 156.44 251.178C152.428 247.872 146.563 244.849 139.227 242.292C124.564 237.18 104.243 234 81.75 234C59.2568 234 38.9357 237.18 24.2732 242.292C16.9373 244.849 11.072 247.872 7.06035 251.178C3.04197 254.49 1 257.984 1 261.5C1 265.016 3.04197 268.51 7.06035 271.822C11.072 275.128 16.9373 278.151 24.2732 280.708C38.9357 285.82 59.2568 289 81.75 289C104.243 289 124.564 285.82 139.227 280.708C146.563 278.151 152.428 275.128 156.44 271.822C160.458 268.51 162.5 265.016 162.5 261.5Z" fill="#1A1A1A" stroke="white" stroke-width="2"/>
<path d="M42.0136 314.76L72.2932 380.011C72.8463 381.203 74.0175 381.987 75.3301 382.044C77.6709 382.146 79.4549 379.974 78.8996 377.697L61.8507 307.812C60.9048 303.935 57.8537 300.922 53.9648 300.025C45.4021 298.051 38.3146 306.789 42.0136 314.76Z" fill="#1A1A1A"/>
<path d="M42.483 267V255.8H51.091V257.816H44.803V260.376H48.947V262.328H44.803V264.984H51.155V267H42.483ZM55.2115 267H52.5395L56.7955 261.208L52.7635 255.8H55.5315L58.1875 259.48L60.8275 255.8H63.4995L59.5155 261.208L63.8355 267H61.0675L58.1395 262.92L55.2115 267ZM65.583 267V255.8H71.199C71.743 255.8 72.2443 255.891 72.703 256.072C73.1723 256.243 73.5723 256.483 73.903 256.792C74.2337 257.101 74.4897 257.475 74.671 257.912C74.863 258.339 74.959 258.808 74.959 259.32C74.959 259.821 74.863 260.285 74.671 260.712C74.4897 261.128 74.2283 261.491 73.887 261.8C73.5563 262.109 73.1617 262.349 72.703 262.52C72.2443 262.691 71.743 262.776 71.199 262.776H67.903V267H65.583ZM70.943 257.8H67.903V260.856H70.943C71.4443 260.856 71.8443 260.717 72.143 260.44C72.4523 260.163 72.607 259.795 72.607 259.336C72.607 258.877 72.4523 258.509 72.143 258.232C71.8443 257.944 71.4443 257.8 70.943 257.8ZM77.2736 267V255.8H79.5936V264.952H85.7216V267H77.2736ZM98.6695 261.4C98.6695 262.2 98.5148 262.957 98.2055 263.672C97.8962 264.376 97.4748 264.989 96.9415 265.512C96.4188 266.024 95.7948 266.429 95.0695 266.728C94.3442 267.027 93.5655 267.176 92.7335 267.176C91.9122 267.176 91.1388 267.027 90.4135 266.728C89.6882 266.429 89.0588 266.024 88.5255 265.512C88.0028 264.989 87.5868 264.376 87.2775 263.672C86.9682 262.957 86.8135 262.2 86.8135 261.4C86.8135 260.6 86.9682 259.848 87.2775 259.144C87.5868 258.429 88.0028 257.816 88.5255 257.304C89.0588 256.781 89.6882 256.371 90.4135 256.072C91.1388 255.773 91.9122 255.624 92.7335 255.624C93.5655 255.624 94.3442 255.773 95.0695 256.072C95.7948 256.371 96.4188 256.781 96.9415 257.304C97.4748 257.816 97.8962 258.429 98.2055 259.144C98.5148 259.848 98.6695 260.6 98.6695 261.4ZM96.2855 261.4C96.2855 260.877 96.1948 260.397 96.0135 259.96C95.8322 259.512 95.5815 259.128 95.2615 258.808C94.9522 258.477 94.5788 258.221 94.1415 258.04C93.7042 257.848 93.2348 257.752 92.7335 257.752C92.2322 257.752 91.7628 257.848 91.3255 258.04C90.8988 258.221 90.5255 258.477 90.2055 258.808C89.8962 259.128 89.6508 259.512 89.4695 259.96C89.2882 260.397 89.1975 260.877 89.1975 261.4C89.1975 261.912 89.2882 262.392 89.4695 262.84C89.6508 263.288 89.8962 263.677 90.2055 264.008C90.5255 264.328 90.8988 264.584 91.3255 264.776C91.7628 264.957 92.2322 265.048 92.7335 265.048C93.2348 265.048 93.7042 264.957 94.1415 264.776C94.5788 264.584 94.9522 264.328 95.2615 264.008C95.5815 263.677 95.8322 263.288 96.0135 262.84C96.1948 262.392 96.2855 261.912 96.2855 261.4ZM101.061 267V255.8H106.533C107.098 255.8 107.616 255.885 108.085 256.056C108.565 256.227 108.976 256.467 109.317 256.776C109.658 257.075 109.925 257.437 110.117 257.864C110.309 258.291 110.405 258.76 110.405 259.272C110.405 259.976 110.202 260.605 109.797 261.16C109.402 261.715 108.874 262.125 108.213 262.392L110.693 267H108.101L105.909 262.712H103.381V267H101.061ZM106.325 257.8H103.381V260.808H106.325C106.848 260.808 107.264 260.669 107.573 260.392C107.893 260.115 108.053 259.752 108.053 259.304C108.053 258.856 107.893 258.493 107.573 258.216C107.264 257.939 106.848 257.8 106.325 257.8ZM112.721 267V255.8H121.329V257.816H115.041V260.376H119.185V262.328H115.041V264.984H121.393V267H112.721Z" fill="white"/>
<circle cx="81.75" cy="22.5" r="22.5" fill="url(#paint0_linear)"/>
<circle cx="77.25" cy="16.5" r="9" fill="#1A1A1A"/>
<mask id="mask4" mask-type="alpha" maskUnits="userSpaceOnUse" x="68" y="7" width="19" height="19">
<circle cx="77.25" cy="16.5" r="9" fill="#C4C4C4"/>
</mask>
<g mask="url(#mask4)">
<path d="M56.9881 -164.58L-201.284 -15.4662L-201.625 -16.0572L56.6469 -165.171L56.9881 -164.58Z" fill="white"/>
<path d="M64.8985 -162.46L-193.374 -13.3466L-193.715 -13.9376L64.5573 -163.051L64.8985 -162.46Z" fill="white"/>
<path d="M72.8089 -160.341L-185.463 -11.227L-185.804 -11.8181L72.4677 -160.932L72.8089 -160.341Z" fill="white"/>
<path d="M80.7193 -158.221L-177.553 -9.10746L-177.894 -9.69847L80.3781 -158.812L80.7193 -158.221Z" fill="white"/>
<path d="M88.6297 -156.101L-169.642 -6.98787L-169.984 -7.57889L88.2885 -156.692L88.6297 -156.101Z" fill="white"/>
<path d="M96.5401 -153.982L-161.732 -4.86829L-162.073 -5.4593L96.1989 -154.573L96.5401 -153.982Z" fill="white"/>
<path d="M104.45 -151.862L-153.822 -2.7487L-154.163 -3.33972L104.109 -152.453L104.45 -151.862Z" fill="white"/>
<path d="M112.361 -149.743L-145.911 -0.629118L-146.252 -1.22013L112.02 -150.334L112.361 -149.743Z" fill="white"/>
<path d="M120.271 -147.623L-138.001 1.49047L-138.342 0.899452L119.93 -148.214L120.271 -147.623Z" fill="white"/>
<path d="M128.182 -145.503L-130.09 3.61005L-130.432 3.01904L127.84 -146.094L128.182 -145.503Z" fill="white"/>
<path d="M136.092 -143.384L-122.18 5.72963L-122.521 5.13862L135.751 -143.975L136.092 -143.384Z" fill="white"/>
<path d="M144.002 -141.264L-114.27 7.84922L-114.611 7.25821L143.661 -141.855L144.002 -141.264Z" fill="white"/>
<path d="M151.913 -139.145L-106.359 9.96881L-106.7 9.37779L151.572 -139.736L151.913 -139.145Z" fill="white"/>
<path d="M159.823 -137.025L-98.4488 12.0884L-98.79 11.4974L159.482 -137.616L159.823 -137.025Z" fill="white"/>
<path d="M167.734 -134.905L-90.5384 14.208L-90.8796 13.617L167.392 -135.497L167.734 -134.905Z" fill="white"/>
<path d="M175.644 -132.786L-82.628 16.3276L-82.9692 15.7365L175.303 -133.377L175.644 -132.786Z" fill="white"/>
<path d="M183.554 -130.666L-74.7176 18.4471L-75.0588 17.8561L183.213 -131.257L183.554 -130.666Z" fill="white"/>
<path d="M191.465 -128.547L-66.8072 20.5667L-67.1484 19.9757L191.124 -129.138L191.465 -128.547Z" fill="white"/>
<path d="M199.375 -126.427L-58.8968 22.6863L-59.238 22.0953L199.034 -127.018L199.375 -126.427Z" fill="white"/>
<path d="M207.286 -124.308L-50.9864 24.8059L-51.3276 24.2149L206.944 -124.899L207.286 -124.308Z" fill="white"/>
<path d="M215.196 -122.188L-43.076 26.9255L-43.4172 26.3345L214.855 -122.779L215.196 -122.188Z" fill="white"/>
<path d="M223.106 -120.068L-35.1656 29.0451L-35.5068 28.4541L222.765 -120.659L223.106 -120.068Z" fill="white"/>
<path d="M231.017 -117.949L-27.2552 31.1646L-27.5964 30.5736L230.676 -118.54L231.017 -117.949Z" fill="white"/>
<path d="M238.927 -115.829L-19.3448 33.2842L-19.686 32.6932L238.586 -116.42L238.927 -115.829Z" fill="white"/>
<path d="M246.838 -113.71L-11.4344 35.4038L-11.7756 34.8128L246.496 -114.301L246.838 -113.71Z" fill="white"/>
<path d="M254.748 -111.59L-3.52402 37.5234L-3.86524 36.9324L254.407 -112.181L254.748 -111.59Z" fill="white"/>
<path d="M262.658 -109.47L4.38638 39.643L4.04516 39.052L262.317 -110.061L262.658 -109.47Z" fill="white"/>
<path d="M270.569 -107.351L12.2968 41.7626L11.9556 41.1716L270.228 -107.942L270.569 -107.351Z" fill="white"/>
<path d="M278.479 -105.231L20.2072 43.8822L19.866 43.2911L278.138 -105.822L278.479 -105.231Z" fill="white"/>
<path d="M285.748 -103.284L27.4764 45.8299L27.1352 45.2389L285.407 -103.875L285.748 -103.284Z" fill="white"/>
<path d="M293.659 -101.164L35.3868 47.9495L35.0456 47.3585L293.318 -101.755L293.659 -101.164Z" fill="white"/>
<path d="M301.569 -99.0443L43.2972 50.0691L42.956 49.4781L301.228 -99.6354L301.569 -99.0443Z" fill="white"/>
<path d="M309.48 -96.9248L51.2076 52.1887L50.8664 51.5977L309.138 -97.5158L309.48 -96.9248Z" fill="white"/>
<path d="M317.39 -94.8052L59.118 54.3083L58.7768 53.7173L317.049 -95.3962L317.39 -94.8052Z" fill="white"/>
<path d="M325.3 -92.6856L67.0284 56.4279L66.6872 55.8368L324.959 -93.2766L325.3 -92.6856Z" fill="white"/>
<path d="M333.211 -90.566L74.9388 58.5475L74.5976 57.9564L332.87 -91.157L333.211 -90.566Z" fill="white"/>
<path d="M341.121 -88.4464L82.8492 60.667L82.508 60.076L340.78 -89.0374L341.121 -88.4464Z" fill="white"/>
<path d="M349.032 -86.3268L90.7596 62.7866L90.4184 62.1956L348.69 -86.9179L349.032 -86.3268Z" fill="white"/>
<path d="M356.942 -84.2073L98.67 64.9062L98.3288 64.3152L356.601 -84.7983L356.942 -84.2073Z" fill="white"/>
<path d="M364.852 -82.0877L106.58 67.0258L106.239 66.4348L364.511 -82.6787L364.852 -82.0877Z" fill="white"/>
<path d="M372.763 -79.9681L114.491 69.1454L114.15 68.5544L372.422 -80.5591L372.763 -79.9681Z" fill="white"/>
<path d="M380.673 -77.8485L122.401 71.265L122.06 70.6739L380.332 -78.4395L380.673 -77.8485Z" fill="white"/>
<path d="M388.584 -75.7289L130.312 73.3845L129.97 72.7935L388.242 -76.3199L388.584 -75.7289Z" fill="white"/>
<path d="M396.494 -73.6093L138.222 75.5041L137.881 74.9131L396.153 -74.2004L396.494 -73.6093Z" fill="white"/>
<path d="M404.404 -71.4897L146.132 77.6237L145.791 77.0327L404.063 -72.0808L404.404 -71.4897Z" fill="white"/>
<path d="M412.315 -69.3702L154.043 79.7433L153.702 79.1523L411.974 -69.9612L412.315 -69.3702Z" fill="white"/>
<path d="M420.225 -67.2506L161.953 81.8629L161.612 81.2719L419.884 -67.8416L420.225 -67.2506Z" fill="white"/>
<path d="M428.136 -65.131L169.864 83.9825L169.522 83.3915L427.794 -65.722L428.136 -65.131Z" fill="white"/>
<path d="M436.046 -63.0114L177.774 86.1021L177.433 85.511L435.705 -63.6024L436.046 -63.0114Z" fill="white"/>
<path d="M443.956 -60.8918L185.684 88.2216L185.343 87.6306L443.615 -61.4828L443.956 -60.8918Z" fill="white"/>
<path d="M451.867 -58.7722L193.595 90.3412L193.254 89.7502L451.526 -59.3633L451.867 -58.7722Z" fill="white"/>
<path d="M459.777 -56.6527L201.505 92.4608L201.164 91.8698L459.436 -57.2437L459.777 -56.6527Z" fill="white"/>
<path d="M467.688 -54.5331L209.416 94.5804L209.074 93.9894L467.346 -55.1241L467.688 -54.5331Z" fill="white"/>
<path d="M475.598 -52.4135L217.326 96.7L216.985 96.109L475.257 -53.0045L475.598 -52.4135Z" fill="white"/>
<path d="M483.508 -50.2939L225.236 98.8196L224.895 98.2285L483.167 -50.8849L483.508 -50.2939Z" fill="white"/>
<path d="M491.419 -48.1743L233.147 100.939L232.806 100.348L491.078 -48.7653L491.419 -48.1743Z" fill="white"/>
<path d="M499.329 -46.0547L241.057 103.059L240.716 102.468L498.988 -46.6458L499.329 -46.0547Z" fill="white"/>
<path d="M507.24 -43.9351L248.968 105.178L248.626 104.587L506.898 -44.5262L507.24 -43.9351Z" fill="white"/>
</g>
<circle cx="81.75" cy="435.5" r="22.5" fill="url(#paint1_linear)"/>
<circle cx="77.25" cy="429.5" r="9" fill="#1A1A1A"/>
<mask id="mask5" mask-type="alpha" maskUnits="userSpaceOnUse" x="68" y="420" width="19" height="19">
<circle cx="77.25" cy="429.5" r="9" fill="#C4C4C4"/>
</mask>
<g mask="url(#mask5)">
<path d="M56.9881 248.42L-201.284 397.534L-201.625 396.943L56.6469 247.829L56.9881 248.42Z" fill="white"/>
<path d="M64.8985 250.54L-193.374 399.653L-193.715 399.062L64.5573 249.949L64.8985 250.54Z" fill="white"/>
<path d="M72.8089 252.659L-185.463 401.773L-185.804 401.182L72.4677 252.068L72.8089 252.659Z" fill="white"/>
<path d="M80.7193 254.779L-177.553 403.893L-177.894 403.302L80.3781 254.188L80.7193 254.779Z" fill="white"/>
<path d="M88.6297 256.899L-169.642 406.012L-169.984 405.421L88.2885 256.308L88.6297 256.899Z" fill="white"/>
<path d="M96.5401 259.018L-161.732 408.132L-162.073 407.541L96.1989 258.427L96.5401 259.018Z" fill="white"/>
<path d="M104.45 261.138L-153.822 410.251L-154.163 409.66L104.109 260.547L104.45 261.138Z" fill="white"/>
<path d="M112.361 263.257L-145.911 412.371L-146.252 411.78L112.02 262.666L112.361 263.257Z" fill="white"/>
<path d="M120.271 265.377L-138.001 414.49L-138.342 413.899L119.93 264.786L120.271 265.377Z" fill="white"/>
<path d="M128.182 267.497L-130.09 416.61L-130.432 416.019L127.84 266.906L128.182 267.497Z" fill="white"/>
<path d="M136.092 269.616L-122.18 418.73L-122.521 418.139L135.751 269.025L136.092 269.616Z" fill="white"/>
<path d="M144.002 271.736L-114.27 420.849L-114.611 420.258L143.661 271.145L144.002 271.736Z" fill="white"/>
<path d="M151.913 273.855L-106.359 422.969L-106.7 422.378L151.572 273.264L151.913 273.855Z" fill="white"/>
<path d="M159.823 275.975L-98.4488 425.088L-98.79 424.497L159.482 275.384L159.823 275.975Z" fill="white"/>
<path d="M167.734 278.095L-90.5384 427.208L-90.8796 426.617L167.392 277.503L167.734 278.095Z" fill="white"/>
<path d="M175.644 280.214L-82.628 429.328L-82.9692 428.737L175.303 279.623L175.644 280.214Z" fill="white"/>
<path d="M183.554 282.334L-74.7176 431.447L-75.0588 430.856L183.213 281.743L183.554 282.334Z" fill="white"/>
<path d="M191.465 284.453L-66.8072 433.567L-67.1484 432.976L191.124 283.862L191.465 284.453Z" fill="white"/>
<path d="M199.375 286.573L-58.8968 435.686L-59.238 435.095L199.034 285.982L199.375 286.573Z" fill="white"/>
<path d="M207.286 288.692L-50.9864 437.806L-51.3276 437.215L206.944 288.101L207.286 288.692Z" fill="white"/>
<path d="M215.196 290.812L-43.076 439.925L-43.4172 439.334L214.855 290.221L215.196 290.812Z" fill="white"/>
<path d="M223.106 292.932L-35.1656 442.045L-35.5068 441.454L222.765 292.341L223.106 292.932Z" fill="white"/>
<path d="M231.017 295.051L-27.2552 444.165L-27.5964 443.574L230.676 294.46L231.017 295.051Z" fill="white"/>
<path d="M238.927 297.171L-19.3448 446.284L-19.686 445.693L238.586 296.58L238.927 297.171Z" fill="white"/>
<path d="M246.838 299.29L-11.4344 448.404L-11.7756 447.813L246.496 298.699L246.838 299.29Z" fill="white"/>
<path d="M254.748 301.41L-3.52402 450.523L-3.86524 449.932L254.407 300.819L254.748 301.41Z" fill="white"/>
<path d="M262.658 303.53L4.38638 452.643L4.04516 452.052L262.317 302.939L262.658 303.53Z" fill="white"/>
<path d="M270.569 305.649L12.2968 454.763L11.9556 454.172L270.228 305.058L270.569 305.649Z" fill="white"/>
<path d="M278.479 307.769L20.2072 456.882L19.866 456.291L278.138 307.178L278.479 307.769Z" fill="white"/>
<path d="M285.748 309.716L27.4764 458.83L27.1352 458.239L285.407 309.125L285.748 309.716Z" fill="white"/>
<path d="M293.659 311.836L35.3868 460.95L35.0456 460.359L293.318 311.245L293.659 311.836Z" fill="white"/>
<path d="M301.569 313.956L43.2972 463.069L42.956 462.478L301.228 313.365L301.569 313.956Z" fill="white"/>
<path d="M309.48 316.075L51.2076 465.189L50.8664 464.598L309.138 315.484L309.48 316.075Z" fill="white"/>
<path d="M317.39 318.195L59.118 467.308L58.7768 466.717L317.049 317.604L317.39 318.195Z" fill="white"/>
<path d="M325.3 320.314L67.0284 469.428L66.6872 468.837L324.959 319.723L325.3 320.314Z" fill="white"/>
<path d="M333.211 322.434L74.9388 471.547L74.5976 470.956L332.87 321.843L333.211 322.434Z" fill="white"/>
<path d="M341.121 324.554L82.8492 473.667L82.508 473.076L340.78 323.963L341.121 324.554Z" fill="white"/>
<path d="M349.032 326.673L90.7596 475.787L90.4184 475.196L348.69 326.082L349.032 326.673Z" fill="white"/>
<path d="M356.942 328.793L98.67 477.906L98.3288 477.315L356.601 328.202L356.942 328.793Z" fill="white"/>
<path d="M364.852 330.912L106.58 480.026L106.239 479.435L364.511 330.321L364.852 330.912Z" fill="white"/>
<path d="M372.763 333.032L114.491 482.145L114.15 481.554L372.422 332.441L372.763 333.032Z" fill="white"/>
<path d="M380.673 335.151L122.401 484.265L122.06 483.674L380.332 334.56L380.673 335.151Z" fill="white"/>
<path d="M388.584 337.271L130.312 486.385L129.97 485.794L388.242 336.68L388.584 337.271Z" fill="white"/>
<path d="M396.494 339.391L138.222 488.504L137.881 487.913L396.153 338.8L396.494 339.391Z" fill="white"/>
<path d="M404.404 341.51L146.132 490.624L145.791 490.033L404.063 340.919L404.404 341.51Z" fill="white"/>
<path d="M412.315 343.63L154.043 492.743L153.702 492.152L411.974 343.039L412.315 343.63Z" fill="white"/>
<path d="M420.225 345.749L161.953 494.863L161.612 494.272L419.884 345.158L420.225 345.749Z" fill="white"/>
<path d="M428.136 347.869L169.864 496.982L169.522 496.391L427.794 347.278L428.136 347.869Z" fill="white"/>
<path d="M436.046 349.989L177.774 499.102L177.433 498.511L435.705 349.398L436.046 349.989Z" fill="white"/>
<path d="M443.956 352.108L185.684 501.222L185.343 500.631L443.615 351.517L443.956 352.108Z" fill="white"/>
<path d="M451.867 354.228L193.595 503.341L193.254 502.75L451.526 353.637L451.867 354.228Z" fill="white"/>
<path d="M459.777 356.347L201.505 505.461L201.164 504.87L459.436 355.756L459.777 356.347Z" fill="white"/>
<path d="M467.688 358.467L209.416 507.58L209.074 506.989L467.346 357.876L467.688 358.467Z" fill="white"/>
<path d="M475.598 360.587L217.326 509.7L216.985 509.109L475.257 359.995L475.598 360.587Z" fill="white"/>
<path d="M483.508 362.706L225.236 511.82L224.895 511.229L483.167 362.115L483.508 362.706Z" fill="white"/>
<path d="M491.419 364.826L233.147 513.939L232.806 513.348L491.078 364.235L491.419 364.826Z" fill="white"/>
<path d="M499.329 366.945L241.057 516.059L240.716 515.468L498.988 366.354L499.329 366.945Z" fill="white"/>
<path d="M507.24 369.065L248.968 518.178L248.626 517.587L506.898 368.474L507.24 369.065Z" fill="white"/>
</g>
<circle cx="81.75" cy="849.5" r="22.5" fill="url(#paint2_linear)"/>
<circle cx="77.25" cy="843.5" r="9" fill="#1A1A1A"/>
<mask id="mask6" mask-type="alpha" maskUnits="userSpaceOnUse" x="68" y="834" width="19" height="19">
<circle cx="77.25" cy="843.5" r="9" fill="#C4C4C4"/>
</mask>
<g mask="url(#mask6)">
<path d="M56.9881 662.42L-201.284 811.534L-201.625 810.943L56.6469 661.829L56.9881 662.42Z" fill="white"/>
<path d="M64.8985 664.54L-193.374 813.653L-193.715 813.062L64.5573 663.949L64.8985 664.54Z" fill="white"/>
<path d="M72.8089 666.659L-185.463 815.773L-185.804 815.182L72.4677 666.068L72.8089 666.659Z" fill="white"/>
<path d="M80.7193 668.779L-177.553 817.893L-177.894 817.302L80.3781 668.188L80.7193 668.779Z" fill="white"/>
<path d="M88.6297 670.899L-169.642 820.012L-169.984 819.421L88.2885 670.308L88.6297 670.899Z" fill="white"/>
<path d="M96.5401 673.018L-161.732 822.132L-162.073 821.541L96.1989 672.427L96.5401 673.018Z" fill="white"/>
<path d="M104.45 675.138L-153.822 824.251L-154.163 823.66L104.109 674.547L104.45 675.138Z" fill="white"/>
<path d="M112.361 677.257L-145.911 826.371L-146.252 825.78L112.02 676.666L112.361 677.257Z" fill="white"/>
<path d="M120.271 679.377L-138.001 828.49L-138.342 827.899L119.93 678.786L120.271 679.377Z" fill="white"/>
<path d="M128.182 681.497L-130.09 830.61L-130.432 830.019L127.84 680.906L128.182 681.497Z" fill="white"/>
<path d="M136.092 683.616L-122.18 832.73L-122.521 832.139L135.751 683.025L136.092 683.616Z" fill="white"/>
<path d="M144.002 685.736L-114.27 834.849L-114.611 834.258L143.661 685.145L144.002 685.736Z" fill="white"/>
<path d="M151.913 687.855L-106.359 836.969L-106.7 836.378L151.572 687.264L151.913 687.855Z" fill="white"/>
<path d="M159.823 689.975L-98.4488 839.088L-98.79 838.497L159.482 689.384L159.823 689.975Z" fill="white"/>
<path d="M167.734 692.095L-90.5384 841.208L-90.8796 840.617L167.392 691.503L167.734 692.095Z" fill="white"/>
<path d="M175.644 694.214L-82.628 843.328L-82.9692 842.737L175.303 693.623L175.644 694.214Z" fill="white"/>
<path d="M183.554 696.334L-74.7176 845.447L-75.0588 844.856L183.213 695.743L183.554 696.334Z" fill="white"/>
<path d="M191.465 698.453L-66.8072 847.567L-67.1484 846.976L191.124 697.862L191.465 698.453Z" fill="white"/>
<path d="M199.375 700.573L-58.8968 849.686L-59.238 849.095L199.034 699.982L199.375 700.573Z" fill="white"/>
<path d="M207.286 702.692L-50.9864 851.806L-51.3276 851.215L206.944 702.101L207.286 702.692Z" fill="white"/>
<path d="M215.196 704.812L-43.076 853.925L-43.4172 853.334L214.855 704.221L215.196 704.812Z" fill="white"/>
<path d="M223.106 706.932L-35.1656 856.045L-35.5068 855.454L222.765 706.341L223.106 706.932Z" fill="white"/>
<path d="M231.017 709.051L-27.2552 858.165L-27.5964 857.574L230.676 708.46L231.017 709.051Z" fill="white"/>
<path d="M238.927 711.171L-19.3448 860.284L-19.686 859.693L238.586 710.58L238.927 711.171Z" fill="white"/>
<path d="M246.838 713.29L-11.4344 862.404L-11.7756 861.813L246.496 712.699L246.838 713.29Z" fill="white"/>
<path d="M254.748 715.41L-3.52402 864.523L-3.86524 863.932L254.407 714.819L254.748 715.41Z" fill="white"/>
<path d="M262.658 717.53L4.38638 866.643L4.04516 866.052L262.317 716.939L262.658 717.53Z" fill="white"/>
<path d="M270.569 719.649L12.2968 868.763L11.9556 868.172L270.228 719.058L270.569 719.649Z" fill="white"/>
<path d="M278.479 721.769L20.2072 870.882L19.866 870.291L278.138 721.178L278.479 721.769Z" fill="white"/>
<path d="M285.748 723.716L27.4764 872.83L27.1352 872.239L285.407 723.125L285.748 723.716Z" fill="white"/>
<path d="M293.659 725.836L35.3868 874.95L35.0456 874.359L293.318 725.245L293.659 725.836Z" fill="white"/>
<path d="M301.569 727.956L43.2972 877.069L42.956 876.478L301.228 727.365L301.569 727.956Z" fill="white"/>
<path d="M309.48 730.075L51.2076 879.189L50.8664 878.598L309.138 729.484L309.48 730.075Z" fill="white"/>
<path d="M317.39 732.195L59.118 881.308L58.7768 880.717L317.049 731.604L317.39 732.195Z" fill="white"/>
<path d="M325.3 734.314L67.0284 883.428L66.6872 882.837L324.959 733.723L325.3 734.314Z" fill="white"/>
<path d="M333.211 736.434L74.9388 885.547L74.5976 884.956L332.87 735.843L333.211 736.434Z" fill="white"/>
<path d="M341.121 738.554L82.8492 887.667L82.508 887.076L340.78 737.963L341.121 738.554Z" fill="white"/>
<path d="M349.032 740.673L90.7596 889.787L90.4184 889.196L348.69 740.082L349.032 740.673Z" fill="white"/>
<path d="M356.942 742.793L98.67 891.906L98.3288 891.315L356.601 742.202L356.942 742.793Z" fill="white"/>
<path d="M364.852 744.912L106.58 894.026L106.239 893.435L364.511 744.321L364.852 744.912Z" fill="white"/>
<path d="M372.763 747.032L114.491 896.145L114.15 895.554L372.422 746.441L372.763 747.032Z" fill="white"/>
<path d="M380.673 749.151L122.401 898.265L122.06 897.674L380.332 748.56L380.673 749.151Z" fill="white"/>
<path d="M388.584 751.271L130.312 900.385L129.97 899.794L388.242 750.68L388.584 751.271Z" fill="white"/>
<path d="M396.494 753.391L138.222 902.504L137.881 901.913L396.153 752.8L396.494 753.391Z" fill="white"/>
<path d="M404.404 755.51L146.132 904.624L145.791 904.033L404.063 754.919L404.404 755.51Z" fill="white"/>
<path d="M412.315 757.63L154.043 906.743L153.702 906.152L411.974 757.039L412.315 757.63Z" fill="white"/>
<path d="M420.225 759.749L161.953 908.863L161.612 908.272L419.884 759.158L420.225 759.749Z" fill="white"/>
<path d="M428.136 761.869L169.864 910.982L169.522 910.391L427.794 761.278L428.136 761.869Z" fill="white"/>
<path d="M436.046 763.989L177.774 913.102L177.433 912.511L435.705 763.398L436.046 763.989Z" fill="white"/>
<path d="M443.956 766.108L185.684 915.222L185.343 914.631L443.615 765.517L443.956 766.108Z" fill="white"/>
<path d="M451.867 768.228L193.595 917.341L193.254 916.75L451.526 767.637L451.867 768.228Z" fill="white"/>
<path d="M459.777 770.347L201.505 919.461L201.164 918.87L459.436 769.756L459.777 770.347Z" fill="white"/>
<path d="M467.688 772.467L209.416 921.58L209.074 920.989L467.346 771.876L467.688 772.467Z" fill="white"/>
<path d="M475.598 774.587L217.326 923.7L216.985 923.109L475.257 773.995L475.598 774.587Z" fill="white"/>
<path d="M483.508 776.706L225.236 925.82L224.895 925.229L483.167 776.115L483.508 776.706Z" fill="white"/>
<path d="M491.419 778.826L233.147 927.939L232.806 927.348L491.078 778.235L491.419 778.826Z" fill="white"/>
<path d="M499.329 780.945L241.057 930.059L240.716 929.468L498.988 780.354L499.329 780.945Z" fill="white"/>
<path d="M507.24 783.065L248.968 932.178L248.626 931.587L506.898 782.474L507.24 783.065Z" fill="white"/>
</g>
<mask id="mask7" mask-type="alpha" maskUnits="userSpaceOnUse" x="0" y="168" width="164" height="57">
<path d="M162.5 196.5C162.5 200.016 160.458 203.51 156.44 206.822C152.428 210.128 146.563 213.151 139.227 215.708C124.564 220.82 104.243 224 81.75 224C59.2568 224 38.9357 220.82 24.2732 215.708C16.9373 213.151 11.072 210.128 7.06035 206.822C3.04197 203.51 1 200.016 1 196.5C1 192.984 3.04197 189.49 7.06035 186.178C11.072 182.872 16.9373 179.849 24.2732 177.292C38.9357 172.18 59.2568 169 81.75 169C104.243 169 124.564 172.18 139.227 177.292C146.563 179.849 152.428 182.872 156.44 186.178C160.458 189.49 162.5 192.984 162.5 196.5Z" fill="#1A1A1A" stroke="white" stroke-width="2"/>
</mask>
<g mask="url(#mask7)">
<circle cx="84" cy="165.75" r="10.25" fill="white" stroke="white" stroke-width="2"/>
</g>
<circle cx="131.25" cy="219" r="10.25" fill="white" stroke="white" stroke-width="2"/>
<circle cx="129" cy="216" r="4.5" fill="#1A1A1A"/>
<circle cx="36.75" cy="201.75" r="10.25" fill="white" stroke="white" stroke-width="2"/>
<circle cx="34.5" cy="198.75" r="4.5" fill="#1A1A1A"/>
<defs>
<linearGradient id="paint0_linear" x1="62.4833" y1="7.87482" x2="101.256" y2="35.4684" gradientUnits="userSpaceOnUse">
<stop offset="0.1582" stop-color="#F9E700"/>
<stop offset="0.9641" stop-color="#F79C63"/>
</linearGradient>
<linearGradient id="paint1_linear" x1="59.25" y1="435.5" x2="104.25" y2="435.5" gradientUnits="userSpaceOnUse">
<stop stop-color="#BCD431"/>
<stop offset="1" stop-color="#00AAFF"/>
</linearGradient>
<linearGradient id="paint2_linear" x1="59.25" y1="849.5" x2="104.25" y2="849.5" gradientUnits="userSpaceOnUse">
<stop stop-color="#48BBF0"/>
<stop offset="1" stop-color="#1B63A6"/>
</linearGradient>
</defs>
</svg>