<svg width="118" height="26" viewBox="0 0 118 26" fill="none" xmlns="http://www.w3.org/2000/svg">
<path d="M41.6587 14.5179L40.9553 16.5109H40.8967C40.7795 16.0615 40.5645 15.3776 40.2128 14.5569L36.4417 5.08021H32.7487V20.1844H35.1911V10.8639C35.1911 10.2778 35.1911 9.61341 35.1716 8.79274C35.152 8.38241 35.113 8.06978 35.0934 7.8353H35.152C35.2693 8.42149 35.406 8.85136 35.5037 9.12492L40.0369 20.1453H41.7564L46.2506 9.02722C46.3483 8.7732 46.446 8.26517 46.5437 7.8353H46.6023C46.5437 8.94906 46.5046 9.94558 46.485 10.5513V20.1257H49.0838V5.04113H45.5276L41.6587 14.5179ZM51.5458 9.30078H54.086V20.1257H51.5458V9.30078ZM52.8354 4.72849C52.4056 4.72849 52.0538 4.88481 51.7607 5.15837C51.4677 5.43192 51.3113 5.78364 51.3113 6.21351C51.3113 6.62384 51.4677 6.97556 51.7607 7.24911C52.0538 7.52267 52.4056 7.65944 52.8354 7.65944C53.2653 7.65944 53.6366 7.50313 53.9101 7.24911C54.2032 6.97556 54.3595 6.62384 54.3595 6.21351C54.3595 5.80318 54.2032 5.45146 53.9101 5.15837C53.6561 4.88481 53.2848 4.72849 52.8354 4.72849ZM63.0938 9.20308C62.6248 9.10538 62.1363 9.04676 61.6674 9.04676C60.5145 9.04676 59.4594 9.30078 58.5801 9.80881C57.7008 10.3168 56.9974 11.0203 56.548 11.8996C56.079 12.7984 55.8445 13.834 55.8445 15.0259C55.8445 16.0615 56.079 16.9799 56.5284 17.8201C56.9778 18.6407 57.6031 19.3051 58.4433 19.7545C59.2444 20.2039 60.1823 20.4384 61.2375 20.4384C62.4489 20.4384 63.4845 20.1844 64.3052 19.7154L64.3248 19.6959V17.3511L64.2271 17.4293C63.8558 17.7028 63.4259 17.9373 62.9961 18.0741C62.5466 18.2304 62.1363 18.3086 61.7846 18.3086C60.7685 18.3086 59.9674 18.0155 59.4008 17.3707C58.8146 16.7454 58.5215 15.8856 58.5215 14.811C58.5215 13.6972 58.8146 12.8179 59.4203 12.1731C60.026 11.5283 60.8271 11.1961 61.8041 11.1961C62.6248 11.1961 63.465 11.4697 64.2271 12.0168L64.3248 12.0949V9.61341L64.3052 9.59387C63.973 9.45709 63.6018 9.30078 63.0938 9.20308ZM71.4763 9.12492C70.851 9.12492 70.2648 9.32031 69.7568 9.73065C69.3269 10.0824 69.0338 10.5904 68.7798 11.1961H68.7603V9.30078H66.2201V20.1257H68.7603V14.596C68.7603 13.6581 68.9557 12.8765 69.3855 12.3099C69.8154 11.7237 70.3625 11.4306 71.0269 11.4306C71.2613 11.4306 71.4958 11.4892 71.7889 11.5283C72.0625 11.6065 72.2579 11.6846 72.3946 11.7823L72.4923 11.8605V9.32032L72.4337 9.30078C72.2579 9.18354 71.9061 9.12492 71.4763 9.12492ZM78.3933 9.0663C76.6152 9.0663 75.1888 9.59387 74.1923 10.6295C73.1762 11.6651 72.6877 13.0915 72.6877 14.8891C72.6877 16.5695 73.1958 17.9373 74.1727 18.9338C75.1497 19.9108 76.4784 20.4188 78.1393 20.4188C79.8783 20.4188 81.2656 19.8913 82.2622 18.8361C83.2782 17.781 83.7667 16.3741 83.7667 14.6351C83.7667 12.9156 83.2978 11.5478 82.3403 10.5513C81.422 9.55479 80.0737 9.0663 78.3933 9.0663ZM80.4254 17.3902C79.9565 17.9959 79.214 18.289 78.2956 18.289C77.3772 18.289 76.6347 17.9959 76.1072 17.3511C75.5796 16.7454 75.3256 15.8661 75.3256 14.7523C75.3256 13.5995 75.5991 12.7202 76.1072 12.0949C76.6347 11.4697 77.3577 11.157 78.2761 11.157C79.1749 11.157 79.8783 11.4501 80.3863 12.0559C80.8944 12.6616 81.1679 13.5409 81.1679 14.6937C81.1289 15.8661 80.9139 16.7845 80.4254 17.3902ZM89.4332 13.7949C88.6321 13.4627 88.1241 13.2087 87.8896 12.9938C87.6942 12.7984 87.5965 12.5248 87.5965 12.1731C87.5965 11.88 87.7137 11.5869 88.0068 11.3915C88.2999 11.1961 88.6321 11.0984 89.1206 11.0984C89.5505 11.0984 89.9999 11.1766 90.4297 11.2938C90.8596 11.4111 91.2504 11.5869 91.563 11.8214L91.6607 11.8996V9.51571L91.6021 9.49617C91.309 9.37893 90.9182 9.2617 90.4493 9.164C89.9803 9.08584 89.5505 9.04676 89.1987 9.04676C87.9873 9.04676 86.9908 9.33985 86.2092 9.98466C85.4276 10.5904 85.0563 11.4111 85.0563 12.3685C85.0563 12.8765 85.1345 13.3259 85.3103 13.6972C85.4862 14.0685 85.7402 14.4202 86.0919 14.7133C86.4436 14.9868 86.9517 15.2995 87.6551 15.5925C88.2413 15.8466 88.6907 16.042 88.9643 16.1983C89.2378 16.3546 89.4137 16.5305 89.5504 16.6672C89.6481 16.8235 89.7068 17.0189 89.7068 17.273C89.7068 17.9959 89.1597 18.3476 88.0459 18.3476C87.616 18.3476 87.1666 18.2695 86.639 18.0936C86.1115 17.9178 85.623 17.6638 85.2127 17.3707L85.115 17.2925V19.774L85.1736 19.7936C85.5448 19.9694 85.9942 20.0867 86.5413 20.2234C87.0885 20.3211 87.5769 20.3993 88.0068 20.3993C89.316 20.3993 90.3907 20.1062 91.1527 19.4614C91.9343 18.8361 92.3446 18.035 92.3446 16.9994C92.3446 16.2764 92.1492 15.6316 91.7194 15.1431C91.1527 14.6742 90.4493 14.1857 89.4332 13.7949ZM99.0467 9.0663C97.2686 9.0663 95.8422 9.59387 94.8457 10.6295C93.8492 11.6651 93.3411 13.0915 93.3411 14.8891C93.3411 16.5695 93.8492 17.9373 94.8262 18.9338C95.8031 19.9108 97.1318 20.4188 98.7927 20.4188C100.532 20.4188 101.919 19.8913 102.916 18.8361C103.932 17.781 104.42 16.3741 104.42 14.6351C104.42 12.9156 103.951 11.5478 102.994 10.5513C102.075 9.55479 100.727 9.0663 99.0467 9.0663ZM101.059 17.3902C100.59 17.9959 99.8479 18.289 98.9295 18.289C97.9916 18.289 97.2686 17.9959 96.7411 17.3511C96.2135 16.7454 95.9595 15.8661 95.9595 14.7523C95.9595 13.5995 96.233 12.7202 96.7411 12.0949C97.2686 11.4697 97.9916 11.157 98.91 11.157C99.7892 11.157 100.512 11.4501 101.02 12.0559C101.528 12.6616 101.802 13.5409 101.802 14.6937C101.802 15.8661 101.548 16.7845 101.059 17.3902ZM118 11.3915V9.30078H115.44V6.09627L115.362 6.11581L112.939 6.83878L112.881 6.85832V9.30078H109.051V7.933C109.051 7.30773 109.207 6.81924 109.481 6.5066C109.754 6.19397 110.165 6.03765 110.673 6.03765C111.025 6.03765 111.396 6.11581 111.806 6.29167L111.904 6.35029V4.1423L111.845 4.12276C111.493 4.00553 111.025 3.92737 110.419 3.92737C109.657 3.92737 108.992 4.10323 108.387 4.39632C107.781 4.72849 107.332 5.17791 106.999 5.78364C106.667 6.36983 106.491 7.03417 106.491 7.79622V9.30078H104.713V11.372H106.491V20.1257H109.051V11.3915H112.881V16.9603C112.881 19.2465 113.955 20.3993 116.105 20.3993C116.457 20.3993 116.828 20.3407 117.18 20.2821C117.551 20.2039 117.824 20.1062 117.981 20.0281L118 20.0085V17.9178L117.903 17.9959C117.746 18.0936 117.609 18.1718 117.375 18.2304C117.18 18.289 117.004 18.3086 116.867 18.3086C116.359 18.3086 116.007 18.1913 115.753 17.8982C115.519 17.6247 115.401 17.1753 115.401 16.5109V11.3915H118Z" fill="white"/>
<path d="M0 0H11.9778V11.9778H0V0Z" fill="#EC4C23"/>
<path d="M13.2286 0H25.2065V11.9778H13.2286V0Z" fill="#7DB300"/>
<path d="M0 13.2283H11.9778V25.2061H0V13.2283Z" fill="#019FE8"/>
<path d="M13.2286 13.2283H25.2065V25.2061H13.2286V13.2283Z" fill="#F7B302"/>
</svg>
