<svg width="515" height="486" viewBox="0 0 515 486" fill="none" xmlns="http://www.w3.org/2000/svg">
<mask id="mask0" mask-type="alpha" maskUnits="userSpaceOnUse" x="62" y="111" width="453" height="366">
<path d="M206.045 175.73L253.442 225.663L210.685 392.772L498.502 315.821L483.981 382.598L131.913 475.246L206.045 175.73Z" fill="#B3B3B3"/>
</mask>
<g mask="url(#mask0)">
<path d="M109.894 489.336L-234.378 290.57L-234.833 291.358L109.439 490.124L109.894 489.336Z" fill="#1A1A1A"/>
<path d="M120.438 486.51L-223.834 287.745L-224.289 288.533L119.983 487.298L120.438 486.51Z" fill="#1A1A1A"/>
<path d="M130.982 483.685L-213.29 284.92L-213.744 285.707L130.528 484.473L130.982 483.685Z" fill="#1A1A1A"/>
<path d="M141.527 480.86L-202.745 282.094L-203.2 282.882L141.072 481.647L141.527 480.86Z" fill="#1A1A1A"/>
<path d="M152.071 478.034L-192.201 279.269L-192.656 280.057L151.616 478.822L152.071 478.034Z" fill="#1A1A1A"/>
<path d="M162.616 475.209L-181.656 276.443L-182.111 277.231L162.161 475.997L162.616 475.209Z" fill="#1A1A1A"/>
<path d="M173.16 472.384L-171.112 273.618L-171.567 274.406L172.705 473.171L173.16 472.384Z" fill="#1A1A1A"/>
<path d="M183.704 469.558L-160.568 270.793L-161.022 271.58L183.25 470.346L183.704 469.558Z" fill="#1A1A1A"/>
<path d="M194.249 466.733L-150.023 267.967L-150.478 268.755L193.794 467.521L194.249 466.733Z" fill="#1A1A1A"/>
<path d="M204.793 463.907L-139.479 265.142L-139.934 265.93L204.338 464.695L204.793 463.907Z" fill="#1A1A1A"/>
<path d="M215.338 461.082L-128.934 262.317L-129.389 263.104L214.883 461.87L215.338 461.082Z" fill="#1A1A1A"/>
<path d="M225.882 458.257L-118.39 259.491L-118.845 260.279L225.427 459.045L225.882 458.257Z" fill="#1A1A1A"/>
<path d="M236.427 455.431L-107.845 256.666L-108.3 257.454L235.972 456.219L236.427 455.431Z" fill="#1A1A1A"/>
<path d="M246.971 452.606L-97.301 253.84L-97.7559 254.628L246.516 453.394L246.971 452.606Z" fill="#1A1A1A"/>
<path d="M257.515 449.781L-86.7566 251.015L-87.2115 251.803L257.061 450.568L257.515 449.781Z" fill="#1A1A1A"/>
<path d="M268.06 446.955L-76.2122 248.19L-76.667 248.978L267.605 447.743L268.06 446.955Z" fill="#1A1A1A"/>
<path d="M278.604 444.13L-65.6678 245.364L-66.1226 246.152L278.149 444.918L278.604 444.13Z" fill="#1A1A1A"/>
<path d="M289.149 441.305L-55.1234 242.539L-55.5782 243.327L288.694 442.092L289.149 441.305Z" fill="#1A1A1A"/>
<path d="M299.693 438.479L-44.5789 239.714L-45.0338 240.501L299.238 439.267L299.693 438.479Z" fill="#1A1A1A"/>
<path d="M310.237 435.654L-34.0345 236.888L-34.4894 237.676L309.783 436.442L310.237 435.654Z" fill="#1A1A1A"/>
<path d="M320.782 432.828L-23.4901 234.063L-23.9449 234.851L320.327 433.616L320.782 432.828Z" fill="#1A1A1A"/>
<path d="M331.326 430.003L-12.9457 231.238L-13.4005 232.025L330.871 430.791L331.326 430.003Z" fill="#1A1A1A"/>
<path d="M341.871 427.178L-2.40127 228.412L-2.85611 229.2L341.416 427.965L341.871 427.178Z" fill="#1A1A1A"/>
<path d="M352.415 424.352L8.14315 225.587L7.6883 226.375L351.96 425.14L352.415 424.352Z" fill="#1A1A1A"/>
<path d="M362.96 421.527L18.6876 222.761L18.2327 223.549L362.505 422.315L362.96 421.527Z" fill="#1A1A1A"/>
<path d="M373.504 418.702L29.232 219.936L28.7771 220.724L373.049 419.489L373.504 418.702Z" fill="#1A1A1A"/>
<path d="M384.048 415.876L39.7764 217.111L39.3216 217.898L383.594 416.664L384.048 415.876Z" fill="#1A1A1A"/>
<path d="M394.593 413.051L50.3208 214.285L49.866 215.073L394.138 413.839L394.593 413.051Z" fill="#1A1A1A"/>
<path d="M405.137 410.225L60.8652 211.46L60.4104 212.248L404.682 411.013L405.137 410.225Z" fill="#1A1A1A"/>
<path d="M414.827 407.629L70.555 208.864L70.1001 209.651L414.372 408.417L414.827 407.629Z" fill="#1A1A1A"/>
<path d="M425.371 404.804L81.0994 206.038L80.6446 206.826L424.917 405.592L425.371 404.804Z" fill="#1A1A1A"/>
<path d="M435.916 401.978L91.6438 203.213L91.189 204.001L435.461 402.766L435.916 401.978Z" fill="#1A1A1A"/>
<path d="M446.46 399.153L102.188 200.387L101.733 201.175L446.005 399.941L446.46 399.153Z" fill="#1A1A1A"/>
<path d="M457.005 396.328L112.733 197.562L112.278 198.35L456.55 397.115L457.005 396.328Z" fill="#1A1A1A"/>
<path d="M467.549 393.502L123.277 194.737L122.822 195.525L467.094 394.29L467.549 393.502Z" fill="#1A1A1A"/>
<path d="M478.094 390.677L133.821 191.911L133.367 192.699L477.639 391.465L478.094 390.677Z" fill="#1A1A1A"/>
<path d="M488.638 387.852L144.366 189.086L143.911 189.874L488.183 388.639L488.638 387.852Z" fill="#1A1A1A"/>
<path d="M499.182 385.026L154.91 186.261L154.455 187.048L498.727 385.814L499.182 385.026Z" fill="#1A1A1A"/>
<path d="M509.727 382.201L165.455 183.435L165 184.223L509.272 382.989L509.727 382.201Z" fill="#1A1A1A"/>
<path d="M520.271 379.375L175.999 180.61L175.544 181.398L519.816 380.163L520.271 379.375Z" fill="#1A1A1A"/>
<path d="M530.816 376.55L186.544 177.785L186.089 178.572L530.361 377.338L530.816 376.55Z" fill="#1A1A1A"/>
<path d="M541.36 373.725L197.088 174.959L196.633 175.747L540.905 374.513L541.36 373.725Z" fill="#1A1A1A"/>
<path d="M551.904 370.899L207.632 172.134L207.178 172.922L551.45 371.687L551.904 370.899Z" fill="#1A1A1A"/>
<path d="M562.449 368.074L218.177 169.308L217.722 170.096L561.994 368.862L562.449 368.074Z" fill="#1A1A1A"/>
<path d="M572.993 365.249L228.721 166.483L228.266 167.271L572.538 366.036L572.993 365.249Z" fill="#1A1A1A"/>
<path d="M583.538 362.423L239.266 163.658L238.811 164.445L583.083 363.211L583.538 362.423Z" fill="#1A1A1A"/>
<path d="M594.082 359.598L249.81 160.832L249.355 161.62L593.627 360.386L594.082 359.598Z" fill="#1A1A1A"/>
<path d="M604.627 356.772L260.355 158.007L259.9 158.795L604.172 357.56L604.627 356.772Z" fill="#1A1A1A"/>
<path d="M615.171 353.947L270.899 155.182L270.444 155.969L614.716 354.735L615.171 353.947Z" fill="#1A1A1A"/>
<path d="M625.715 351.122L281.443 152.356L280.989 153.144L625.261 351.91L625.715 351.122Z" fill="#1A1A1A"/>
<path d="M636.26 348.296L291.988 149.531L291.533 150.319L635.805 349.084L636.26 348.296Z" fill="#1A1A1A"/>
<path d="M646.804 345.471L302.532 146.705L302.077 147.493L646.349 346.259L646.804 345.471Z" fill="#1A1A1A"/>
<path d="M657.349 342.646L313.077 143.88L312.622 144.668L656.894 343.433L657.349 342.646Z" fill="#1A1A1A"/>
<path d="M667.893 339.82L323.621 141.055L323.166 141.843L667.438 340.608L667.893 339.82Z" fill="#1A1A1A"/>
<path d="M678.437 336.995L334.165 138.229L333.711 139.017L677.983 337.783L678.437 336.995Z" fill="#1A1A1A"/>
<path d="M688.982 334.17L344.71 135.404L344.255 136.192L688.527 334.957L688.982 334.17Z" fill="#1A1A1A"/>
<path d="M699.526 331.344L355.254 132.579L354.799 133.366L699.071 332.132L699.526 331.344Z" fill="#1A1A1A"/>
<path d="M710.071 328.519L365.799 129.753L365.344 130.541L709.616 329.307L710.071 328.519Z" fill="#1A1A1A"/>
</g>
<path d="M226.192 329.249C226.086 329.658 226.248 330.088 226.597 330.326L276.435 364.326C276.695 364.503 277.023 364.548 277.32 364.447L466.902 300.089L497.298 316.907L483.066 382.358L132.199 474.69L119.109 459.262L203.453 167.529L253.398 224.263L226.192 329.249Z" stroke="#1A1A1A" stroke-width="2" stroke-linecap="round" stroke-linejoin="round"/>
<path d="M173.62 64.6853L389.494 285.65L227.041 329.264L210.773 393.301L498.411 316.313L238.237 47.2025L173.62 64.6853Z" fill="url(#paint0_linear)"/>
<path d="M173.622 64.6854L84.6857 427.087L131.845 475.817L205.898 176.322L325.881 302.78L389.516 285.729L173.622 64.6854Z" fill="url(#paint1_linear)"/>
<defs>
<linearGradient id="paint0_linear" x1="168.441" y1="235.316" x2="456.058" y2="158.249" gradientUnits="userSpaceOnUse">
<stop stop-color="#BCD431"/>
<stop offset="1" stop-color="#00AAFF"/>
</linearGradient>
<linearGradient id="paint1_linear" x1="50.0351" y1="297.769" x2="369.785" y2="212.092" gradientUnits="userSpaceOnUse">
<stop stop-color="#48BBF0"/>
<stop offset="1" stop-color="#1B63A6"/>
</linearGradient>
</defs>
</svg>
